%TF.GenerationSoftware,KiCad,Pcbnew,8.0.1*%
%TF.CreationDate,2024-04-19T02:30:16-04:00*%
%TF.ProjectId,hello-my-name-is,68656c6c-6f2d-46d7-992d-6e616d652d69,rev?*%
%TF.SameCoordinates,Original*%
%TF.FileFunction,Soldermask,Top*%
%TF.FilePolarity,Negative*%
%FSLAX46Y46*%
G04 Gerber Fmt 4.6, Leading zero omitted, Abs format (unit mm)*
G04 Created by KiCad (PCBNEW 8.0.1) date 2024-04-19 02:30:16*
%MOMM*%
%LPD*%
G01*
G04 APERTURE LIST*
%ADD10C,1.600000*%
%ADD11O,1.600000X1.600000*%
%ADD12R,1.700000X1.700000*%
%ADD13C,1.700000*%
%ADD14R,1.600000X1.600000*%
%ADD15O,1.700000X1.700000*%
G04 APERTURE END LIST*
D10*
%TO.C,R15*%
X130000000Y-63000000D03*
D11*
X119840000Y-63000000D03*
%TD*%
D10*
%TO.C,R14*%
X130000000Y-66250000D03*
D11*
X119840000Y-66250000D03*
%TD*%
D10*
%TO.C,R13*%
X119840000Y-72750000D03*
D11*
X130000000Y-72750000D03*
%TD*%
D12*
%TO.C,SW1*%
X109250000Y-77000000D03*
D13*
X109250000Y-83500000D03*
X104750000Y-77000000D03*
X104750000Y-83500000D03*
%TD*%
D10*
%TO.C,R12*%
X174250000Y-83660000D03*
D11*
X174250000Y-73500000D03*
%TD*%
D14*
%TO.C,U1*%
X181875000Y-70550000D03*
D11*
X184415000Y-70550000D03*
X186955000Y-70550000D03*
X189495000Y-70550000D03*
X192035000Y-70550000D03*
X194575000Y-70550000D03*
X197115000Y-70550000D03*
X197115000Y-62930000D03*
X194575000Y-62930000D03*
X192035000Y-62930000D03*
X189495000Y-62930000D03*
X186955000Y-62930000D03*
X184415000Y-62930000D03*
X181875000Y-62930000D03*
%TD*%
D10*
%TO.C,R2*%
X119840000Y-79250000D03*
D11*
X130000000Y-79250000D03*
%TD*%
D10*
%TO.C,R6*%
X190500000Y-73500000D03*
D11*
X190500000Y-83660000D03*
%TD*%
D10*
%TO.C,R5*%
X187250000Y-73500000D03*
D11*
X187250000Y-83660000D03*
%TD*%
D10*
%TO.C,R1*%
X119840000Y-76000000D03*
D11*
X130000000Y-76000000D03*
%TD*%
D10*
%TO.C,R4*%
X119840000Y-82500000D03*
D11*
X130000000Y-82500000D03*
%TD*%
D10*
%TO.C,C3*%
X178500000Y-62000000D03*
X173500000Y-62000000D03*
%TD*%
%TO.C,C2*%
X173500000Y-65500000D03*
X178500000Y-65500000D03*
%TD*%
D12*
%TO.C,SW2*%
X109250000Y-63000000D03*
D13*
X109250000Y-69500000D03*
X104750000Y-63000000D03*
X104750000Y-69500000D03*
%TD*%
%TO.C,J1*%
X113860000Y-129400000D03*
D12*
X118940000Y-129400000D03*
D15*
X124020000Y-129400000D03*
D12*
X129100000Y-129400000D03*
D15*
X134180000Y-129400000D03*
D12*
X139260000Y-129400000D03*
D15*
X144340000Y-129400000D03*
D12*
X149420000Y-129400000D03*
D15*
X154500000Y-129400000D03*
D12*
X159580000Y-129400000D03*
D15*
X164660000Y-129400000D03*
D12*
X169740000Y-129400000D03*
D15*
X174820000Y-129400000D03*
D12*
X179900000Y-129400000D03*
D15*
X184980000Y-129400000D03*
D12*
X190060000Y-129400000D03*
%TD*%
D10*
%TO.C,R11*%
X177500000Y-73500000D03*
D11*
X177500000Y-83660000D03*
%TD*%
D10*
%TO.C,R7*%
X193750000Y-73500000D03*
D11*
X193750000Y-83660000D03*
%TD*%
D10*
%TO.C,R8*%
X197000000Y-73500000D03*
D11*
X197000000Y-83660000D03*
%TD*%
D13*
%TO.C,SW3*%
X103750000Y-122750000D03*
X110250000Y-122750000D03*
X103750000Y-127250000D03*
D12*
X110250000Y-127250000D03*
%TD*%
D10*
%TO.C,R10*%
X180750000Y-73500000D03*
D11*
X180750000Y-83660000D03*
%TD*%
D10*
%TO.C,C1*%
X133000000Y-68000000D03*
X133000000Y-63000000D03*
%TD*%
%TO.C,R9*%
X184000000Y-73500000D03*
D11*
X184000000Y-83660000D03*
%TD*%
D10*
%TO.C,R3*%
X119840000Y-69500000D03*
D11*
X130000000Y-69500000D03*
%TD*%
M02*
