%TF.GenerationSoftware,KiCad,Pcbnew,8.0.1*%
%TF.CreationDate,2024-04-19T02:30:16-04:00*%
%TF.ProjectId,hello-my-name-is,68656c6c-6f2d-46d7-992d-6e616d652d69,rev?*%
%TF.SameCoordinates,Original*%
%TF.FileFunction,Soldermask,Bot*%
%TF.FilePolarity,Negative*%
%FSLAX46Y46*%
G04 Gerber Fmt 4.6, Leading zero omitted, Abs format (unit mm)*
G04 Created by KiCad (PCBNEW 8.0.1) date 2024-04-19 02:30:16*
%MOMM*%
%LPD*%
G01*
G04 APERTURE LIST*
%ADD10C,0.000000*%
%ADD11C,1.600000*%
%ADD12O,1.600000X1.600000*%
%ADD13R,1.700000X1.700000*%
%ADD14C,1.700000*%
%ADD15R,1.600000X1.600000*%
%ADD16O,1.700000X1.700000*%
%ADD17R,2.489200X5.105400*%
%ADD18C,17.805000*%
G04 APERTURE END LIST*
D10*
%TO.C,B2*%
G36*
X153736831Y-84768363D02*
G01*
X155406916Y-85274978D01*
X156946075Y-86097675D01*
X158295160Y-87204840D01*
X159402325Y-88553925D01*
X160225022Y-90093084D01*
X160731637Y-91763169D01*
X160902700Y-93500000D01*
X160731637Y-95236831D01*
X160225022Y-96906916D01*
X159402325Y-98446075D01*
X158295160Y-99795160D01*
X156946075Y-100902325D01*
X155406916Y-101725022D01*
X153736831Y-102231637D01*
X152000000Y-102402700D01*
X150263169Y-102231637D01*
X148593084Y-101725022D01*
X147053925Y-100902325D01*
X145704840Y-99795160D01*
X144597675Y-98446075D01*
X143774978Y-96906916D01*
X143268363Y-95236831D01*
X143097300Y-93500000D01*
X143268363Y-91763169D01*
X143774978Y-90093084D01*
X144597675Y-88553925D01*
X145704840Y-87204840D01*
X147053925Y-86097675D01*
X148593084Y-85274978D01*
X150263169Y-84768363D01*
X152000000Y-84597300D01*
X153736831Y-84768363D01*
G37*
%TO.C,B1*%
G36*
X153736831Y-104768363D02*
G01*
X155406916Y-105274978D01*
X156946075Y-106097675D01*
X158295160Y-107204840D01*
X159402325Y-108553925D01*
X160225022Y-110093084D01*
X160731637Y-111763169D01*
X160902700Y-113500000D01*
X160731637Y-115236831D01*
X160225022Y-116906916D01*
X159402325Y-118446075D01*
X158295160Y-119795160D01*
X156946075Y-120902325D01*
X155406916Y-121725022D01*
X153736831Y-122231637D01*
X152000000Y-122402700D01*
X150263169Y-122231637D01*
X148593084Y-121725022D01*
X147053925Y-120902325D01*
X145704840Y-119795160D01*
X144597675Y-118446075D01*
X143774978Y-116906916D01*
X143268363Y-115236831D01*
X143097300Y-113500000D01*
X143268363Y-111763169D01*
X143774978Y-110093084D01*
X144597675Y-108553925D01*
X145704840Y-107204840D01*
X147053925Y-106097675D01*
X148593084Y-105274978D01*
X150263169Y-104768363D01*
X152000000Y-104597300D01*
X153736831Y-104768363D01*
G37*
%TD*%
D11*
%TO.C,R15*%
X130000000Y-63000000D03*
D12*
X119840000Y-63000000D03*
%TD*%
D11*
%TO.C,R14*%
X130000000Y-66250000D03*
D12*
X119840000Y-66250000D03*
%TD*%
D11*
%TO.C,R13*%
X119840000Y-72750000D03*
D12*
X130000000Y-72750000D03*
%TD*%
D13*
%TO.C,SW1*%
X109250000Y-77000000D03*
D14*
X109250000Y-83500000D03*
X104750000Y-77000000D03*
X104750000Y-83500000D03*
%TD*%
D11*
%TO.C,R12*%
X174250000Y-83660000D03*
D12*
X174250000Y-73500000D03*
%TD*%
D15*
%TO.C,U1*%
X181875000Y-70550000D03*
D12*
X184415000Y-70550000D03*
X186955000Y-70550000D03*
X189495000Y-70550000D03*
X192035000Y-70550000D03*
X194575000Y-70550000D03*
X197115000Y-70550000D03*
X197115000Y-62930000D03*
X194575000Y-62930000D03*
X192035000Y-62930000D03*
X189495000Y-62930000D03*
X186955000Y-62930000D03*
X184415000Y-62930000D03*
X181875000Y-62930000D03*
%TD*%
D11*
%TO.C,R2*%
X119840000Y-79250000D03*
D12*
X130000000Y-79250000D03*
%TD*%
D11*
%TO.C,R6*%
X190500000Y-73500000D03*
D12*
X190500000Y-83660000D03*
%TD*%
D11*
%TO.C,R5*%
X187250000Y-73500000D03*
D12*
X187250000Y-83660000D03*
%TD*%
D11*
%TO.C,R1*%
X119840000Y-76000000D03*
D12*
X130000000Y-76000000D03*
%TD*%
D11*
%TO.C,R4*%
X119840000Y-82500000D03*
D12*
X130000000Y-82500000D03*
%TD*%
D11*
%TO.C,C3*%
X178500000Y-62000000D03*
X173500000Y-62000000D03*
%TD*%
%TO.C,C2*%
X173500000Y-65500000D03*
X178500000Y-65500000D03*
%TD*%
D13*
%TO.C,SW2*%
X109250000Y-63000000D03*
D14*
X109250000Y-69500000D03*
X104750000Y-63000000D03*
X104750000Y-69500000D03*
%TD*%
%TO.C,J1*%
X113860000Y-129400000D03*
D13*
X118940000Y-129400000D03*
D16*
X124020000Y-129400000D03*
D13*
X129100000Y-129400000D03*
D16*
X134180000Y-129400000D03*
D13*
X139260000Y-129400000D03*
D16*
X144340000Y-129400000D03*
D13*
X149420000Y-129400000D03*
D16*
X154500000Y-129400000D03*
D13*
X159580000Y-129400000D03*
D16*
X164660000Y-129400000D03*
D13*
X169740000Y-129400000D03*
D16*
X174820000Y-129400000D03*
D13*
X179900000Y-129400000D03*
D16*
X184980000Y-129400000D03*
D13*
X190060000Y-129400000D03*
%TD*%
D11*
%TO.C,R11*%
X177500000Y-73500000D03*
D12*
X177500000Y-83660000D03*
%TD*%
D11*
%TO.C,R7*%
X193750000Y-73500000D03*
D12*
X193750000Y-83660000D03*
%TD*%
D11*
%TO.C,R8*%
X197000000Y-73500000D03*
D12*
X197000000Y-83660000D03*
%TD*%
D14*
%TO.C,SW3*%
X103750000Y-122750000D03*
X110250000Y-122750000D03*
X103750000Y-127250000D03*
D13*
X110250000Y-127250000D03*
%TD*%
D11*
%TO.C,R10*%
X180750000Y-73500000D03*
D12*
X180750000Y-83660000D03*
%TD*%
D11*
%TO.C,C1*%
X133000000Y-68000000D03*
X133000000Y-63000000D03*
%TD*%
%TO.C,R9*%
X184000000Y-73500000D03*
D12*
X184000000Y-83660000D03*
%TD*%
D11*
%TO.C,R3*%
X119840000Y-69500000D03*
D12*
X130000000Y-69500000D03*
%TD*%
D17*
%TO.C,B2*%
X140550000Y-93500000D03*
D18*
X152000000Y-93500000D03*
D17*
X163450000Y-93500000D03*
%TD*%
%TO.C,B1*%
X140550000Y-113500000D03*
D18*
X152000000Y-113500000D03*
D17*
X163450000Y-113500000D03*
%TD*%
M02*
