%TF.GenerationSoftware,KiCad,Pcbnew,8.0.1*%
%TF.CreationDate,2024-04-19T02:30:14-04:00*%
%TF.ProjectId,hello-my-name-is,68656c6c-6f2d-46d7-992d-6e616d652d69,rev?*%
%TF.SameCoordinates,Original*%
%TF.FileFunction,Drillmap*%
%TF.FilePolarity,Positive*%
%FSLAX45Y45*%
G04 Gerber Fmt 4.5, Leading zero omitted, Abs format (unit mm)*
G04 Created by KiCad (PCBNEW 8.0.1) date 2024-04-19 02:30:14*
%MOMM*%
%LPD*%
G01*
G04 APERTURE LIST*
%ADD10C,0.200000*%
%ADD11C,0.100000*%
G04 APERTURE END LIST*
D10*
X14500000Y-6800000D02*
G75*
G02*
X14200000Y-6500000I0J300000D01*
G01*
X15950000Y-6150000D02*
G75*
G02*
X16250000Y-6450000I0J-300000D01*
G01*
X14200000Y-6500000D02*
X14200000Y-6450000D01*
X16250000Y-6450000D02*
X16250000Y-6500000D01*
X14200000Y-6450000D02*
G75*
G02*
X14500000Y-6150000I300000J0D01*
G01*
X14500000Y-6150000D02*
X15950000Y-6150000D01*
X15950000Y-6800000D02*
X14500000Y-6800000D01*
X16250000Y-6500000D02*
G75*
G02*
X15950000Y-6800000I-300000J0D01*
G01*
D11*
X19852247Y-5843356D02*
X19878363Y-5845499D01*
X19904099Y-5849027D01*
X19929423Y-5853905D01*
X19954302Y-5860100D01*
X19978705Y-5867575D01*
X20002599Y-5876297D01*
X20025952Y-5886230D01*
X20048731Y-5897340D01*
X20070905Y-5909591D01*
X20092440Y-5922949D01*
X20113304Y-5937379D01*
X20133466Y-5952846D01*
X20152893Y-5969315D01*
X20171552Y-5986752D01*
X20189411Y-6005121D01*
X20206439Y-6024387D01*
X20222602Y-6044517D01*
X20237868Y-6065474D01*
X20252205Y-6087224D01*
X20265581Y-6109732D01*
X20277964Y-6132964D01*
X20289320Y-6156884D01*
X20299619Y-6181458D01*
X20308826Y-6206651D01*
X20316911Y-6232428D01*
X20323841Y-6258753D01*
X20329583Y-6285593D01*
X20334105Y-6312912D01*
X20337375Y-6340676D01*
X20339361Y-6368849D01*
X20340030Y-6397397D01*
X20340030Y-12659985D01*
X20339361Y-12688533D01*
X20337375Y-12716706D01*
X20334105Y-12744470D01*
X20329583Y-12771789D01*
X20323841Y-12798629D01*
X20316911Y-12824954D01*
X20308826Y-12850731D01*
X20299619Y-12875924D01*
X20289320Y-12900497D01*
X20277964Y-12924418D01*
X20265581Y-12947650D01*
X20252205Y-12970158D01*
X20237868Y-12991908D01*
X20222602Y-13012866D01*
X20206439Y-13032995D01*
X20189411Y-13052262D01*
X20171552Y-13070630D01*
X20152893Y-13088067D01*
X20133466Y-13104536D01*
X20113304Y-13120003D01*
X20092440Y-13134433D01*
X20070905Y-13147791D01*
X20048731Y-13160042D01*
X20025952Y-13171152D01*
X20002599Y-13181085D01*
X19978705Y-13189807D01*
X19954302Y-13197282D01*
X19929423Y-13203477D01*
X19904099Y-13208356D01*
X19878363Y-13211884D01*
X19852247Y-13214026D01*
X19825784Y-13214748D01*
X10535527Y-13214748D01*
X10509064Y-13214026D01*
X10482949Y-13211884D01*
X10457213Y-13208356D01*
X10431889Y-13203477D01*
X10407009Y-13197282D01*
X10382606Y-13189807D01*
X10358712Y-13181085D01*
X10335360Y-13171152D01*
X10312580Y-13160042D01*
X10290407Y-13147791D01*
X10268872Y-13134433D01*
X10248008Y-13120003D01*
X10227846Y-13104536D01*
X10208419Y-13088067D01*
X10189760Y-13070630D01*
X10171901Y-13052262D01*
X10154873Y-13032995D01*
X10138710Y-13012866D01*
X10123444Y-12991908D01*
X10109107Y-12970158D01*
X10095731Y-12947650D01*
X10083348Y-12924418D01*
X10071992Y-12900497D01*
X10061693Y-12875924D01*
X10052486Y-12850731D01*
X10044401Y-12824954D01*
X10037471Y-12798629D01*
X10031729Y-12771789D01*
X10027207Y-12744470D01*
X10023936Y-12716706D01*
X10021951Y-12688533D01*
X10021281Y-12659985D01*
X10021281Y-6397397D01*
X10021951Y-6368849D01*
X10023936Y-6340676D01*
X10027207Y-6312912D01*
X10031729Y-6285593D01*
X10037471Y-6258753D01*
X10044401Y-6232428D01*
X10052486Y-6206651D01*
X10061693Y-6181458D01*
X10071992Y-6156884D01*
X10083348Y-6132964D01*
X10095731Y-6109732D01*
X10109107Y-6087224D01*
X10123444Y-6065474D01*
X10138710Y-6044517D01*
X10154873Y-6024387D01*
X10171901Y-6005121D01*
X10189760Y-5986752D01*
X10208419Y-5969315D01*
X10227846Y-5952846D01*
X10248008Y-5937379D01*
X10268872Y-5922949D01*
X10290407Y-5909591D01*
X10312580Y-5897340D01*
X10335360Y-5886230D01*
X10358712Y-5876297D01*
X10382606Y-5867575D01*
X10407009Y-5860100D01*
X10431889Y-5853905D01*
X10457213Y-5849027D01*
X10482949Y-5845499D01*
X10509064Y-5843356D01*
X10535527Y-5842634D01*
X19825784Y-5842634D01*
X19852247Y-5843356D01*
D10*
X10277058Y-13531232D02*
X10277058Y-13331232D01*
X10277058Y-13331232D02*
X10324677Y-13331232D01*
X10324677Y-13331232D02*
X10353249Y-13340755D01*
X10353249Y-13340755D02*
X10372296Y-13359803D01*
X10372296Y-13359803D02*
X10381820Y-13378851D01*
X10381820Y-13378851D02*
X10391344Y-13416946D01*
X10391344Y-13416946D02*
X10391344Y-13445517D01*
X10391344Y-13445517D02*
X10381820Y-13483613D01*
X10381820Y-13483613D02*
X10372296Y-13502660D01*
X10372296Y-13502660D02*
X10353249Y-13521708D01*
X10353249Y-13521708D02*
X10324677Y-13531232D01*
X10324677Y-13531232D02*
X10277058Y-13531232D01*
X10477058Y-13531232D02*
X10477058Y-13397898D01*
X10477058Y-13435994D02*
X10486582Y-13416946D01*
X10486582Y-13416946D02*
X10496106Y-13407422D01*
X10496106Y-13407422D02*
X10515153Y-13397898D01*
X10515153Y-13397898D02*
X10534201Y-13397898D01*
X10600868Y-13531232D02*
X10600868Y-13397898D01*
X10600868Y-13331232D02*
X10591344Y-13340755D01*
X10591344Y-13340755D02*
X10600868Y-13350279D01*
X10600868Y-13350279D02*
X10610392Y-13340755D01*
X10610392Y-13340755D02*
X10600868Y-13331232D01*
X10600868Y-13331232D02*
X10600868Y-13350279D01*
X10724677Y-13531232D02*
X10705630Y-13521708D01*
X10705630Y-13521708D02*
X10696106Y-13502660D01*
X10696106Y-13502660D02*
X10696106Y-13331232D01*
X10829439Y-13531232D02*
X10810392Y-13521708D01*
X10810392Y-13521708D02*
X10800868Y-13502660D01*
X10800868Y-13502660D02*
X10800868Y-13331232D01*
X11058011Y-13531232D02*
X11058011Y-13331232D01*
X11058011Y-13331232D02*
X11124677Y-13474089D01*
X11124677Y-13474089D02*
X11191344Y-13331232D01*
X11191344Y-13331232D02*
X11191344Y-13531232D01*
X11372296Y-13531232D02*
X11372296Y-13426470D01*
X11372296Y-13426470D02*
X11362772Y-13407422D01*
X11362772Y-13407422D02*
X11343725Y-13397898D01*
X11343725Y-13397898D02*
X11305630Y-13397898D01*
X11305630Y-13397898D02*
X11286582Y-13407422D01*
X11372296Y-13521708D02*
X11353249Y-13531232D01*
X11353249Y-13531232D02*
X11305630Y-13531232D01*
X11305630Y-13531232D02*
X11286582Y-13521708D01*
X11286582Y-13521708D02*
X11277058Y-13502660D01*
X11277058Y-13502660D02*
X11277058Y-13483613D01*
X11277058Y-13483613D02*
X11286582Y-13464565D01*
X11286582Y-13464565D02*
X11305630Y-13455041D01*
X11305630Y-13455041D02*
X11353249Y-13455041D01*
X11353249Y-13455041D02*
X11372296Y-13445517D01*
X11467534Y-13397898D02*
X11467534Y-13597898D01*
X11467534Y-13407422D02*
X11486582Y-13397898D01*
X11486582Y-13397898D02*
X11524677Y-13397898D01*
X11524677Y-13397898D02*
X11543725Y-13407422D01*
X11543725Y-13407422D02*
X11553249Y-13416946D01*
X11553249Y-13416946D02*
X11562772Y-13435994D01*
X11562772Y-13435994D02*
X11562772Y-13493136D01*
X11562772Y-13493136D02*
X11553249Y-13512184D01*
X11553249Y-13512184D02*
X11543725Y-13521708D01*
X11543725Y-13521708D02*
X11524677Y-13531232D01*
X11524677Y-13531232D02*
X11486582Y-13531232D01*
X11486582Y-13531232D02*
X11467534Y-13521708D01*
X11648487Y-13512184D02*
X11658011Y-13521708D01*
X11658011Y-13521708D02*
X11648487Y-13531232D01*
X11648487Y-13531232D02*
X11638963Y-13521708D01*
X11638963Y-13521708D02*
X11648487Y-13512184D01*
X11648487Y-13512184D02*
X11648487Y-13531232D01*
X11648487Y-13407422D02*
X11658011Y-13416946D01*
X11658011Y-13416946D02*
X11648487Y-13426470D01*
X11648487Y-13426470D02*
X11638963Y-13416946D01*
X11638963Y-13416946D02*
X11648487Y-13407422D01*
X11648487Y-13407422D02*
X11648487Y-13426470D01*
M02*
