M48
; DRILL file {KiCad 8.0.1} date 2024-04-19T02:30:14-0400
; FORMAT={-:-/ absolute / inch / decimal}
; #@! TF.CreationDate,2024-04-19T02:30:14-04:00
; #@! TF.GenerationSoftware,Kicad,Pcbnew,8.0.1
; #@! TF.FileFunction,Plated,1,2,PTH
FMAT,2
INCH
; #@! TA.AperFunction,Plated,PTH,ViaDrill
T1C0.0118
; #@! TA.AperFunction,Plated,PTH,ComponentDrill
T2C0.0315
; #@! TA.AperFunction,Plated,PTH,ComponentDrill
T3C0.0394
%
G90
G05
T1
X5.1772Y-3.3563
X5.2165Y-3.3563
X5.2559Y-3.3563
X5.2953Y-3.3563
X6.378Y-3.3661
X6.4173Y-3.3661
X6.4567Y-3.3661
X6.4961Y-3.3661
X7.372Y-4.7736
X7.5Y-4.7736
X7.628Y-4.7736
X7.7559Y-4.7736
T2
X4.7181Y-2.4803
X4.7181Y-2.6083
X4.7181Y-2.7362
X4.7181Y-2.8642
X4.7181Y-2.9921
X4.7181Y-3.1201
X4.7181Y-3.248
X5.1181Y-2.4803
X5.1181Y-2.6083
X5.1181Y-2.7362
X5.1181Y-2.8642
X5.1181Y-2.9921
X5.1181Y-3.1201
X5.1181Y-3.248
X5.2362Y-2.4803
X5.2362Y-2.6772
X6.8307Y-2.4409
X6.8307Y-2.5787
X6.8602Y-2.8937
X6.8602Y-3.2937
X6.9882Y-2.8937
X6.9882Y-3.2937
X7.0276Y-2.4409
X7.0276Y-2.5787
X7.1161Y-2.8937
X7.1161Y-3.2937
X7.1604Y-2.4776
X7.1604Y-2.7776
X7.2441Y-2.8937
X7.2441Y-3.2937
X7.2604Y-2.4776
X7.2604Y-2.7776
X7.3604Y-2.4776
X7.3604Y-2.7776
X7.372Y-2.8937
X7.372Y-3.2937
X7.4604Y-2.4776
X7.4604Y-2.7776
X7.5Y-2.8937
X7.5Y-3.2937
X7.5604Y-2.4776
X7.5604Y-2.7776
X7.628Y-2.8937
X7.628Y-3.2937
X7.6604Y-2.4776
X7.6604Y-2.7776
X7.7559Y-2.8937
X7.7559Y-3.2937
X7.7604Y-2.4776
X7.7604Y-2.7776
T3
X4.0846Y-4.8327
X4.0846Y-5.0098
X4.124Y-2.4803
X4.124Y-2.7362
X4.124Y-3.0315
X4.124Y-3.2874
X4.3012Y-2.4803
X4.3012Y-2.7362
X4.3012Y-3.0315
X4.3012Y-3.2874
X4.3406Y-4.8327
X4.3406Y-5.0098
X4.4827Y-5.0945
X4.6827Y-5.0945
X4.8827Y-5.0945
X5.0827Y-5.0945
X5.2827Y-5.0945
X5.4827Y-5.0945
X5.6827Y-5.0945
X5.8827Y-5.0945
X6.0827Y-5.0945
X6.2827Y-5.0945
X6.4827Y-5.0945
X6.6827Y-5.0945
X6.8827Y-5.0945
X7.0827Y-5.0945
X7.2827Y-5.0945
X7.4827Y-5.0945
M30
