%TF.GenerationSoftware,KiCad,Pcbnew,8.0.1*%
%TF.CreationDate,2024-04-19T02:30:14-04:00*%
%TF.ProjectId,hello-my-name-is,68656c6c-6f2d-46d7-992d-6e616d652d69,rev?*%
%TF.SameCoordinates,Original*%
%TF.FileFunction,Drillmap*%
%TF.FilePolarity,Positive*%
%FSLAX45Y45*%
G04 Gerber Fmt 4.5, Leading zero omitted, Abs format (unit mm)*
G04 Created by KiCad (PCBNEW 8.0.1) date 2024-04-19 02:30:14*
%MOMM*%
%LPD*%
G01*
G04 APERTURE LIST*
%ADD10C,0.200000*%
%ADD11C,0.100000*%
G04 APERTURE END LIST*
D10*
X14500000Y-6800000D02*
G75*
G02*
X14200000Y-6500000I0J300000D01*
G01*
X15950000Y-6150000D02*
G75*
G02*
X16250000Y-6450000I0J-300000D01*
G01*
X14200000Y-6500000D02*
X14200000Y-6450000D01*
X16250000Y-6450000D02*
X16250000Y-6500000D01*
X14200000Y-6450000D02*
G75*
G02*
X14500000Y-6150000I300000J0D01*
G01*
X14500000Y-6150000D02*
X15950000Y-6150000D01*
X15950000Y-6800000D02*
X14500000Y-6800000D01*
X16250000Y-6500000D02*
G75*
G02*
X15950000Y-6800000I-300000J0D01*
G01*
D11*
X19852247Y-5843356D02*
X19878363Y-5845499D01*
X19904099Y-5849027D01*
X19929423Y-5853905D01*
X19954302Y-5860100D01*
X19978705Y-5867575D01*
X20002599Y-5876297D01*
X20025952Y-5886230D01*
X20048731Y-5897340D01*
X20070905Y-5909591D01*
X20092440Y-5922949D01*
X20113304Y-5937379D01*
X20133466Y-5952846D01*
X20152893Y-5969315D01*
X20171552Y-5986752D01*
X20189411Y-6005121D01*
X20206439Y-6024387D01*
X20222602Y-6044517D01*
X20237868Y-6065474D01*
X20252205Y-6087224D01*
X20265581Y-6109732D01*
X20277964Y-6132964D01*
X20289320Y-6156884D01*
X20299619Y-6181458D01*
X20308826Y-6206651D01*
X20316911Y-6232428D01*
X20323841Y-6258753D01*
X20329583Y-6285593D01*
X20334105Y-6312912D01*
X20337375Y-6340676D01*
X20339361Y-6368849D01*
X20340030Y-6397397D01*
X20340030Y-12659985D01*
X20339361Y-12688533D01*
X20337375Y-12716706D01*
X20334105Y-12744470D01*
X20329583Y-12771789D01*
X20323841Y-12798629D01*
X20316911Y-12824954D01*
X20308826Y-12850731D01*
X20299619Y-12875924D01*
X20289320Y-12900497D01*
X20277964Y-12924418D01*
X20265581Y-12947650D01*
X20252205Y-12970158D01*
X20237868Y-12991908D01*
X20222602Y-13012866D01*
X20206439Y-13032995D01*
X20189411Y-13052262D01*
X20171552Y-13070630D01*
X20152893Y-13088067D01*
X20133466Y-13104536D01*
X20113304Y-13120003D01*
X20092440Y-13134433D01*
X20070905Y-13147791D01*
X20048731Y-13160042D01*
X20025952Y-13171152D01*
X20002599Y-13181085D01*
X19978705Y-13189807D01*
X19954302Y-13197282D01*
X19929423Y-13203477D01*
X19904099Y-13208356D01*
X19878363Y-13211884D01*
X19852247Y-13214026D01*
X19825784Y-13214748D01*
X10535527Y-13214748D01*
X10509064Y-13214026D01*
X10482949Y-13211884D01*
X10457213Y-13208356D01*
X10431889Y-13203477D01*
X10407009Y-13197282D01*
X10382606Y-13189807D01*
X10358712Y-13181085D01*
X10335360Y-13171152D01*
X10312580Y-13160042D01*
X10290407Y-13147791D01*
X10268872Y-13134433D01*
X10248008Y-13120003D01*
X10227846Y-13104536D01*
X10208419Y-13088067D01*
X10189760Y-13070630D01*
X10171901Y-13052262D01*
X10154873Y-13032995D01*
X10138710Y-13012866D01*
X10123444Y-12991908D01*
X10109107Y-12970158D01*
X10095731Y-12947650D01*
X10083348Y-12924418D01*
X10071992Y-12900497D01*
X10061693Y-12875924D01*
X10052486Y-12850731D01*
X10044401Y-12824954D01*
X10037471Y-12798629D01*
X10031729Y-12771789D01*
X10027207Y-12744470D01*
X10023936Y-12716706D01*
X10021951Y-12688533D01*
X10021281Y-12659985D01*
X10021281Y-6397397D01*
X10021951Y-6368849D01*
X10023936Y-6340676D01*
X10027207Y-6312912D01*
X10031729Y-6285593D01*
X10037471Y-6258753D01*
X10044401Y-6232428D01*
X10052486Y-6206651D01*
X10061693Y-6181458D01*
X10071992Y-6156884D01*
X10083348Y-6132964D01*
X10095731Y-6109732D01*
X10109107Y-6087224D01*
X10123444Y-6065474D01*
X10138710Y-6044517D01*
X10154873Y-6024387D01*
X10171901Y-6005121D01*
X10189760Y-5986752D01*
X10208419Y-5969315D01*
X10227846Y-5952846D01*
X10248008Y-5937379D01*
X10268872Y-5922949D01*
X10290407Y-5909591D01*
X10312580Y-5897340D01*
X10335360Y-5886230D01*
X10358712Y-5876297D01*
X10382606Y-5867575D01*
X10407009Y-5860100D01*
X10431889Y-5853905D01*
X10457213Y-5849027D01*
X10482949Y-5845499D01*
X10509064Y-5843356D01*
X10535527Y-5842634D01*
X19825784Y-5842634D01*
X19852247Y-5843356D01*
D10*
D11*
X13135000Y-8510000D02*
X13165000Y-8540000D01*
X13165000Y-8510000D02*
X13135000Y-8540000D01*
X13235000Y-8510000D02*
X13265000Y-8540000D01*
X13265000Y-8510000D02*
X13235000Y-8540000D01*
X13335000Y-8510000D02*
X13365000Y-8540000D01*
X13365000Y-8510000D02*
X13335000Y-8540000D01*
X13435000Y-8510000D02*
X13465000Y-8540000D01*
X13465000Y-8510000D02*
X13435000Y-8540000D01*
X16185000Y-8535000D02*
X16215000Y-8565000D01*
X16215000Y-8535000D02*
X16185000Y-8565000D01*
X16285000Y-8535000D02*
X16315000Y-8565000D01*
X16315000Y-8535000D02*
X16285000Y-8565000D01*
X16385000Y-8535000D02*
X16415000Y-8565000D01*
X16415000Y-8535000D02*
X16385000Y-8565000D01*
X16485000Y-8535000D02*
X16515000Y-8565000D01*
X16515000Y-8535000D02*
X16485000Y-8565000D01*
X18710000Y-12110000D02*
X18740000Y-12140000D01*
X18740000Y-12110000D02*
X18710000Y-12140000D01*
X19035000Y-12110000D02*
X19065000Y-12140000D01*
X19065000Y-12110000D02*
X19035000Y-12140000D01*
X19360000Y-12110000D02*
X19390000Y-12140000D01*
X19390000Y-12110000D02*
X19360000Y-12140000D01*
X19685000Y-12110000D02*
X19715000Y-12140000D01*
X19715000Y-12110000D02*
X19685000Y-12140000D01*
X12024000Y-6300000D02*
G75*
G02*
X11944000Y-6300000I-40000J0D01*
G01*
X11944000Y-6300000D02*
G75*
G02*
X12024000Y-6300000I40000J0D01*
G01*
X12024000Y-6625000D02*
G75*
G02*
X11944000Y-6625000I-40000J0D01*
G01*
X11944000Y-6625000D02*
G75*
G02*
X12024000Y-6625000I40000J0D01*
G01*
X12024000Y-6950000D02*
G75*
G02*
X11944000Y-6950000I-40000J0D01*
G01*
X11944000Y-6950000D02*
G75*
G02*
X12024000Y-6950000I40000J0D01*
G01*
X12024000Y-7275000D02*
G75*
G02*
X11944000Y-7275000I-40000J0D01*
G01*
X11944000Y-7275000D02*
G75*
G02*
X12024000Y-7275000I40000J0D01*
G01*
X12024000Y-7600000D02*
G75*
G02*
X11944000Y-7600000I-40000J0D01*
G01*
X11944000Y-7600000D02*
G75*
G02*
X12024000Y-7600000I40000J0D01*
G01*
X12024000Y-7925000D02*
G75*
G02*
X11944000Y-7925000I-40000J0D01*
G01*
X11944000Y-7925000D02*
G75*
G02*
X12024000Y-7925000I40000J0D01*
G01*
X12024000Y-8250000D02*
G75*
G02*
X11944000Y-8250000I-40000J0D01*
G01*
X11944000Y-8250000D02*
G75*
G02*
X12024000Y-8250000I40000J0D01*
G01*
X13040000Y-6300000D02*
G75*
G02*
X12960000Y-6300000I-40000J0D01*
G01*
X12960000Y-6300000D02*
G75*
G02*
X13040000Y-6300000I40000J0D01*
G01*
X13040000Y-6625000D02*
G75*
G02*
X12960000Y-6625000I-40000J0D01*
G01*
X12960000Y-6625000D02*
G75*
G02*
X13040000Y-6625000I40000J0D01*
G01*
X13040000Y-6950000D02*
G75*
G02*
X12960000Y-6950000I-40000J0D01*
G01*
X12960000Y-6950000D02*
G75*
G02*
X13040000Y-6950000I40000J0D01*
G01*
X13040000Y-7275000D02*
G75*
G02*
X12960000Y-7275000I-40000J0D01*
G01*
X12960000Y-7275000D02*
G75*
G02*
X13040000Y-7275000I40000J0D01*
G01*
X13040000Y-7600000D02*
G75*
G02*
X12960000Y-7600000I-40000J0D01*
G01*
X12960000Y-7600000D02*
G75*
G02*
X13040000Y-7600000I40000J0D01*
G01*
X13040000Y-7925000D02*
G75*
G02*
X12960000Y-7925000I-40000J0D01*
G01*
X12960000Y-7925000D02*
G75*
G02*
X13040000Y-7925000I40000J0D01*
G01*
X13040000Y-8250000D02*
G75*
G02*
X12960000Y-8250000I-40000J0D01*
G01*
X12960000Y-8250000D02*
G75*
G02*
X13040000Y-8250000I40000J0D01*
G01*
X13340000Y-6300000D02*
G75*
G02*
X13260000Y-6300000I-40000J0D01*
G01*
X13260000Y-6300000D02*
G75*
G02*
X13340000Y-6300000I40000J0D01*
G01*
X13340000Y-6800000D02*
G75*
G02*
X13260000Y-6800000I-40000J0D01*
G01*
X13260000Y-6800000D02*
G75*
G02*
X13340000Y-6800000I40000J0D01*
G01*
X17390000Y-6200000D02*
G75*
G02*
X17310000Y-6200000I-40000J0D01*
G01*
X17310000Y-6200000D02*
G75*
G02*
X17390000Y-6200000I40000J0D01*
G01*
X17390000Y-6550000D02*
G75*
G02*
X17310000Y-6550000I-40000J0D01*
G01*
X17310000Y-6550000D02*
G75*
G02*
X17390000Y-6550000I40000J0D01*
G01*
X17465000Y-7350000D02*
G75*
G02*
X17385000Y-7350000I-40000J0D01*
G01*
X17385000Y-7350000D02*
G75*
G02*
X17465000Y-7350000I40000J0D01*
G01*
X17465000Y-8366000D02*
G75*
G02*
X17385000Y-8366000I-40000J0D01*
G01*
X17385000Y-8366000D02*
G75*
G02*
X17465000Y-8366000I40000J0D01*
G01*
X17790000Y-7350000D02*
G75*
G02*
X17710000Y-7350000I-40000J0D01*
G01*
X17710000Y-7350000D02*
G75*
G02*
X17790000Y-7350000I40000J0D01*
G01*
X17790000Y-8366000D02*
G75*
G02*
X17710000Y-8366000I-40000J0D01*
G01*
X17710000Y-8366000D02*
G75*
G02*
X17790000Y-8366000I40000J0D01*
G01*
X17890000Y-6200000D02*
G75*
G02*
X17810000Y-6200000I-40000J0D01*
G01*
X17810000Y-6200000D02*
G75*
G02*
X17890000Y-6200000I40000J0D01*
G01*
X17890000Y-6550000D02*
G75*
G02*
X17810000Y-6550000I-40000J0D01*
G01*
X17810000Y-6550000D02*
G75*
G02*
X17890000Y-6550000I40000J0D01*
G01*
X18115000Y-7350000D02*
G75*
G02*
X18035000Y-7350000I-40000J0D01*
G01*
X18035000Y-7350000D02*
G75*
G02*
X18115000Y-7350000I40000J0D01*
G01*
X18115000Y-8366000D02*
G75*
G02*
X18035000Y-8366000I-40000J0D01*
G01*
X18035000Y-8366000D02*
G75*
G02*
X18115000Y-8366000I40000J0D01*
G01*
X18227500Y-6293000D02*
G75*
G02*
X18147500Y-6293000I-40000J0D01*
G01*
X18147500Y-6293000D02*
G75*
G02*
X18227500Y-6293000I40000J0D01*
G01*
X18227500Y-7055000D02*
G75*
G02*
X18147500Y-7055000I-40000J0D01*
G01*
X18147500Y-7055000D02*
G75*
G02*
X18227500Y-7055000I40000J0D01*
G01*
X18440000Y-7350000D02*
G75*
G02*
X18360000Y-7350000I-40000J0D01*
G01*
X18360000Y-7350000D02*
G75*
G02*
X18440000Y-7350000I40000J0D01*
G01*
X18440000Y-8366000D02*
G75*
G02*
X18360000Y-8366000I-40000J0D01*
G01*
X18360000Y-8366000D02*
G75*
G02*
X18440000Y-8366000I40000J0D01*
G01*
X18481500Y-6293000D02*
G75*
G02*
X18401500Y-6293000I-40000J0D01*
G01*
X18401500Y-6293000D02*
G75*
G02*
X18481500Y-6293000I40000J0D01*
G01*
X18481500Y-7055000D02*
G75*
G02*
X18401500Y-7055000I-40000J0D01*
G01*
X18401500Y-7055000D02*
G75*
G02*
X18481500Y-7055000I40000J0D01*
G01*
X18735500Y-6293000D02*
G75*
G02*
X18655500Y-6293000I-40000J0D01*
G01*
X18655500Y-6293000D02*
G75*
G02*
X18735500Y-6293000I40000J0D01*
G01*
X18735500Y-7055000D02*
G75*
G02*
X18655500Y-7055000I-40000J0D01*
G01*
X18655500Y-7055000D02*
G75*
G02*
X18735500Y-7055000I40000J0D01*
G01*
X18765000Y-7350000D02*
G75*
G02*
X18685000Y-7350000I-40000J0D01*
G01*
X18685000Y-7350000D02*
G75*
G02*
X18765000Y-7350000I40000J0D01*
G01*
X18765000Y-8366000D02*
G75*
G02*
X18685000Y-8366000I-40000J0D01*
G01*
X18685000Y-8366000D02*
G75*
G02*
X18765000Y-8366000I40000J0D01*
G01*
X18989500Y-6293000D02*
G75*
G02*
X18909500Y-6293000I-40000J0D01*
G01*
X18909500Y-6293000D02*
G75*
G02*
X18989500Y-6293000I40000J0D01*
G01*
X18989500Y-7055000D02*
G75*
G02*
X18909500Y-7055000I-40000J0D01*
G01*
X18909500Y-7055000D02*
G75*
G02*
X18989500Y-7055000I40000J0D01*
G01*
X19090000Y-7350000D02*
G75*
G02*
X19010000Y-7350000I-40000J0D01*
G01*
X19010000Y-7350000D02*
G75*
G02*
X19090000Y-7350000I40000J0D01*
G01*
X19090000Y-8366000D02*
G75*
G02*
X19010000Y-8366000I-40000J0D01*
G01*
X19010000Y-8366000D02*
G75*
G02*
X19090000Y-8366000I40000J0D01*
G01*
X19243500Y-6293000D02*
G75*
G02*
X19163500Y-6293000I-40000J0D01*
G01*
X19163500Y-6293000D02*
G75*
G02*
X19243500Y-6293000I40000J0D01*
G01*
X19243500Y-7055000D02*
G75*
G02*
X19163500Y-7055000I-40000J0D01*
G01*
X19163500Y-7055000D02*
G75*
G02*
X19243500Y-7055000I40000J0D01*
G01*
X19415000Y-7350000D02*
G75*
G02*
X19335000Y-7350000I-40000J0D01*
G01*
X19335000Y-7350000D02*
G75*
G02*
X19415000Y-7350000I40000J0D01*
G01*
X19415000Y-8366000D02*
G75*
G02*
X19335000Y-8366000I-40000J0D01*
G01*
X19335000Y-8366000D02*
G75*
G02*
X19415000Y-8366000I40000J0D01*
G01*
X19497500Y-6293000D02*
G75*
G02*
X19417500Y-6293000I-40000J0D01*
G01*
X19417500Y-6293000D02*
G75*
G02*
X19497500Y-6293000I40000J0D01*
G01*
X19497500Y-7055000D02*
G75*
G02*
X19417500Y-7055000I-40000J0D01*
G01*
X19417500Y-7055000D02*
G75*
G02*
X19497500Y-7055000I40000J0D01*
G01*
X19740000Y-7350000D02*
G75*
G02*
X19660000Y-7350000I-40000J0D01*
G01*
X19660000Y-7350000D02*
G75*
G02*
X19740000Y-7350000I40000J0D01*
G01*
X19740000Y-8366000D02*
G75*
G02*
X19660000Y-8366000I-40000J0D01*
G01*
X19660000Y-8366000D02*
G75*
G02*
X19740000Y-8366000I40000J0D01*
G01*
X19751500Y-6293000D02*
G75*
G02*
X19671500Y-6293000I-40000J0D01*
G01*
X19671500Y-6293000D02*
G75*
G02*
X19751500Y-6293000I40000J0D01*
G01*
X19751500Y-7055000D02*
G75*
G02*
X19671500Y-7055000I-40000J0D01*
G01*
X19671500Y-7055000D02*
G75*
G02*
X19751500Y-7055000I40000J0D01*
G01*
X10375000Y-12225000D02*
X10375000Y-12325000D01*
X10325000Y-12275000D02*
X10425000Y-12275000D01*
X10375000Y-12675000D02*
X10375000Y-12775000D01*
X10325000Y-12725000D02*
X10425000Y-12725000D01*
X10475000Y-6250000D02*
X10475000Y-6350000D01*
X10425000Y-6300000D02*
X10525000Y-6300000D01*
X10475000Y-6900000D02*
X10475000Y-7000000D01*
X10425000Y-6950000D02*
X10525000Y-6950000D01*
X10475000Y-7650000D02*
X10475000Y-7750000D01*
X10425000Y-7700000D02*
X10525000Y-7700000D01*
X10475000Y-8300000D02*
X10475000Y-8400000D01*
X10425000Y-8350000D02*
X10525000Y-8350000D01*
X10925000Y-6250000D02*
X10925000Y-6350000D01*
X10875000Y-6300000D02*
X10975000Y-6300000D01*
X10925000Y-6900000D02*
X10925000Y-7000000D01*
X10875000Y-6950000D02*
X10975000Y-6950000D01*
X10925000Y-7650000D02*
X10925000Y-7750000D01*
X10875000Y-7700000D02*
X10975000Y-7700000D01*
X10925000Y-8300000D02*
X10925000Y-8400000D01*
X10875000Y-8350000D02*
X10975000Y-8350000D01*
X11025000Y-12225000D02*
X11025000Y-12325000D01*
X10975000Y-12275000D02*
X11075000Y-12275000D01*
X11025000Y-12675000D02*
X11025000Y-12775000D01*
X10975000Y-12725000D02*
X11075000Y-12725000D01*
X11386000Y-12890000D02*
X11386000Y-12990000D01*
X11336000Y-12940000D02*
X11436000Y-12940000D01*
X11894000Y-12890000D02*
X11894000Y-12990000D01*
X11844000Y-12940000D02*
X11944000Y-12940000D01*
X12402000Y-12890000D02*
X12402000Y-12990000D01*
X12352000Y-12940000D02*
X12452000Y-12940000D01*
X12910000Y-12890000D02*
X12910000Y-12990000D01*
X12860000Y-12940000D02*
X12960000Y-12940000D01*
X13418000Y-12890000D02*
X13418000Y-12990000D01*
X13368000Y-12940000D02*
X13468000Y-12940000D01*
X13926000Y-12890000D02*
X13926000Y-12990000D01*
X13876000Y-12940000D02*
X13976000Y-12940000D01*
X14434000Y-12890000D02*
X14434000Y-12990000D01*
X14384000Y-12940000D02*
X14484000Y-12940000D01*
X14942000Y-12890000D02*
X14942000Y-12990000D01*
X14892000Y-12940000D02*
X14992000Y-12940000D01*
X15450000Y-12890000D02*
X15450000Y-12990000D01*
X15400000Y-12940000D02*
X15500000Y-12940000D01*
X15958000Y-12890000D02*
X15958000Y-12990000D01*
X15908000Y-12940000D02*
X16008000Y-12940000D01*
X16466000Y-12890000D02*
X16466000Y-12990000D01*
X16416000Y-12940000D02*
X16516000Y-12940000D01*
X16974000Y-12890000D02*
X16974000Y-12990000D01*
X16924000Y-12940000D02*
X17024000Y-12940000D01*
X17482000Y-12890000D02*
X17482000Y-12990000D01*
X17432000Y-12940000D02*
X17532000Y-12940000D01*
X17990000Y-12890000D02*
X17990000Y-12990000D01*
X17940000Y-12940000D02*
X18040000Y-12940000D01*
X18498000Y-12890000D02*
X18498000Y-12990000D01*
X18448000Y-12940000D02*
X18548000Y-12940000D01*
X19006000Y-12890000D02*
X19006000Y-12990000D01*
X18956000Y-12940000D02*
X19056000Y-12940000D01*
D10*
X10277058Y-13531232D02*
X10277058Y-13331232D01*
X10277058Y-13331232D02*
X10324677Y-13331232D01*
X10324677Y-13331232D02*
X10353249Y-13340755D01*
X10353249Y-13340755D02*
X10372296Y-13359803D01*
X10372296Y-13359803D02*
X10381820Y-13378851D01*
X10381820Y-13378851D02*
X10391344Y-13416946D01*
X10391344Y-13416946D02*
X10391344Y-13445517D01*
X10391344Y-13445517D02*
X10381820Y-13483613D01*
X10381820Y-13483613D02*
X10372296Y-13502660D01*
X10372296Y-13502660D02*
X10353249Y-13521708D01*
X10353249Y-13521708D02*
X10324677Y-13531232D01*
X10324677Y-13531232D02*
X10277058Y-13531232D01*
X10477058Y-13531232D02*
X10477058Y-13397898D01*
X10477058Y-13435994D02*
X10486582Y-13416946D01*
X10486582Y-13416946D02*
X10496106Y-13407422D01*
X10496106Y-13407422D02*
X10515153Y-13397898D01*
X10515153Y-13397898D02*
X10534201Y-13397898D01*
X10600868Y-13531232D02*
X10600868Y-13397898D01*
X10600868Y-13331232D02*
X10591344Y-13340755D01*
X10591344Y-13340755D02*
X10600868Y-13350279D01*
X10600868Y-13350279D02*
X10610392Y-13340755D01*
X10610392Y-13340755D02*
X10600868Y-13331232D01*
X10600868Y-13331232D02*
X10600868Y-13350279D01*
X10724677Y-13531232D02*
X10705630Y-13521708D01*
X10705630Y-13521708D02*
X10696106Y-13502660D01*
X10696106Y-13502660D02*
X10696106Y-13331232D01*
X10829439Y-13531232D02*
X10810392Y-13521708D01*
X10810392Y-13521708D02*
X10800868Y-13502660D01*
X10800868Y-13502660D02*
X10800868Y-13331232D01*
X11058011Y-13531232D02*
X11058011Y-13331232D01*
X11058011Y-13331232D02*
X11124677Y-13474089D01*
X11124677Y-13474089D02*
X11191344Y-13331232D01*
X11191344Y-13331232D02*
X11191344Y-13531232D01*
X11372296Y-13531232D02*
X11372296Y-13426470D01*
X11372296Y-13426470D02*
X11362772Y-13407422D01*
X11362772Y-13407422D02*
X11343725Y-13397898D01*
X11343725Y-13397898D02*
X11305630Y-13397898D01*
X11305630Y-13397898D02*
X11286582Y-13407422D01*
X11372296Y-13521708D02*
X11353249Y-13531232D01*
X11353249Y-13531232D02*
X11305630Y-13531232D01*
X11305630Y-13531232D02*
X11286582Y-13521708D01*
X11286582Y-13521708D02*
X11277058Y-13502660D01*
X11277058Y-13502660D02*
X11277058Y-13483613D01*
X11277058Y-13483613D02*
X11286582Y-13464565D01*
X11286582Y-13464565D02*
X11305630Y-13455041D01*
X11305630Y-13455041D02*
X11353249Y-13455041D01*
X11353249Y-13455041D02*
X11372296Y-13445517D01*
X11467534Y-13397898D02*
X11467534Y-13597898D01*
X11467534Y-13407422D02*
X11486582Y-13397898D01*
X11486582Y-13397898D02*
X11524677Y-13397898D01*
X11524677Y-13397898D02*
X11543725Y-13407422D01*
X11543725Y-13407422D02*
X11553249Y-13416946D01*
X11553249Y-13416946D02*
X11562772Y-13435994D01*
X11562772Y-13435994D02*
X11562772Y-13493136D01*
X11562772Y-13493136D02*
X11553249Y-13512184D01*
X11553249Y-13512184D02*
X11543725Y-13521708D01*
X11543725Y-13521708D02*
X11524677Y-13531232D01*
X11524677Y-13531232D02*
X11486582Y-13531232D01*
X11486582Y-13531232D02*
X11467534Y-13521708D01*
X11648487Y-13512184D02*
X11658011Y-13521708D01*
X11658011Y-13521708D02*
X11648487Y-13531232D01*
X11648487Y-13531232D02*
X11638963Y-13521708D01*
X11638963Y-13521708D02*
X11648487Y-13512184D01*
X11648487Y-13512184D02*
X11648487Y-13531232D01*
X11648487Y-13407422D02*
X11658011Y-13416946D01*
X11658011Y-13416946D02*
X11648487Y-13426470D01*
X11648487Y-13426470D02*
X11638963Y-13416946D01*
X11638963Y-13416946D02*
X11648487Y-13407422D01*
X11648487Y-13407422D02*
X11648487Y-13426470D01*
D11*
X9986281Y-13844748D02*
X10016281Y-13874748D01*
X10016281Y-13844748D02*
X9986281Y-13874748D01*
D10*
X10315153Y-13751232D02*
X10334201Y-13751232D01*
X10334201Y-13751232D02*
X10353249Y-13760755D01*
X10353249Y-13760755D02*
X10362773Y-13770279D01*
X10362773Y-13770279D02*
X10372296Y-13789327D01*
X10372296Y-13789327D02*
X10381820Y-13827422D01*
X10381820Y-13827422D02*
X10381820Y-13875041D01*
X10381820Y-13875041D02*
X10372296Y-13913136D01*
X10372296Y-13913136D02*
X10362773Y-13932184D01*
X10362773Y-13932184D02*
X10353249Y-13941708D01*
X10353249Y-13941708D02*
X10334201Y-13951232D01*
X10334201Y-13951232D02*
X10315153Y-13951232D01*
X10315153Y-13951232D02*
X10296106Y-13941708D01*
X10296106Y-13941708D02*
X10286582Y-13932184D01*
X10286582Y-13932184D02*
X10277058Y-13913136D01*
X10277058Y-13913136D02*
X10267534Y-13875041D01*
X10267534Y-13875041D02*
X10267534Y-13827422D01*
X10267534Y-13827422D02*
X10277058Y-13789327D01*
X10277058Y-13789327D02*
X10286582Y-13770279D01*
X10286582Y-13770279D02*
X10296106Y-13760755D01*
X10296106Y-13760755D02*
X10315153Y-13751232D01*
X10467534Y-13932184D02*
X10477058Y-13941708D01*
X10477058Y-13941708D02*
X10467534Y-13951232D01*
X10467534Y-13951232D02*
X10458011Y-13941708D01*
X10458011Y-13941708D02*
X10467534Y-13932184D01*
X10467534Y-13932184D02*
X10467534Y-13951232D01*
X10543725Y-13751232D02*
X10667534Y-13751232D01*
X10667534Y-13751232D02*
X10600868Y-13827422D01*
X10600868Y-13827422D02*
X10629439Y-13827422D01*
X10629439Y-13827422D02*
X10648487Y-13836946D01*
X10648487Y-13836946D02*
X10658011Y-13846470D01*
X10658011Y-13846470D02*
X10667534Y-13865517D01*
X10667534Y-13865517D02*
X10667534Y-13913136D01*
X10667534Y-13913136D02*
X10658011Y-13932184D01*
X10658011Y-13932184D02*
X10648487Y-13941708D01*
X10648487Y-13941708D02*
X10629439Y-13951232D01*
X10629439Y-13951232D02*
X10572296Y-13951232D01*
X10572296Y-13951232D02*
X10553249Y-13941708D01*
X10553249Y-13941708D02*
X10543725Y-13932184D01*
X10791344Y-13751232D02*
X10810392Y-13751232D01*
X10810392Y-13751232D02*
X10829439Y-13760755D01*
X10829439Y-13760755D02*
X10838963Y-13770279D01*
X10838963Y-13770279D02*
X10848487Y-13789327D01*
X10848487Y-13789327D02*
X10858011Y-13827422D01*
X10858011Y-13827422D02*
X10858011Y-13875041D01*
X10858011Y-13875041D02*
X10848487Y-13913136D01*
X10848487Y-13913136D02*
X10838963Y-13932184D01*
X10838963Y-13932184D02*
X10829439Y-13941708D01*
X10829439Y-13941708D02*
X10810392Y-13951232D01*
X10810392Y-13951232D02*
X10791344Y-13951232D01*
X10791344Y-13951232D02*
X10772296Y-13941708D01*
X10772296Y-13941708D02*
X10762773Y-13932184D01*
X10762773Y-13932184D02*
X10753249Y-13913136D01*
X10753249Y-13913136D02*
X10743725Y-13875041D01*
X10743725Y-13875041D02*
X10743725Y-13827422D01*
X10743725Y-13827422D02*
X10753249Y-13789327D01*
X10753249Y-13789327D02*
X10762773Y-13770279D01*
X10762773Y-13770279D02*
X10772296Y-13760755D01*
X10772296Y-13760755D02*
X10791344Y-13751232D01*
X10981820Y-13751232D02*
X11000868Y-13751232D01*
X11000868Y-13751232D02*
X11019915Y-13760755D01*
X11019915Y-13760755D02*
X11029439Y-13770279D01*
X11029439Y-13770279D02*
X11038963Y-13789327D01*
X11038963Y-13789327D02*
X11048487Y-13827422D01*
X11048487Y-13827422D02*
X11048487Y-13875041D01*
X11048487Y-13875041D02*
X11038963Y-13913136D01*
X11038963Y-13913136D02*
X11029439Y-13932184D01*
X11029439Y-13932184D02*
X11019915Y-13941708D01*
X11019915Y-13941708D02*
X11000868Y-13951232D01*
X11000868Y-13951232D02*
X10981820Y-13951232D01*
X10981820Y-13951232D02*
X10962773Y-13941708D01*
X10962773Y-13941708D02*
X10953249Y-13932184D01*
X10953249Y-13932184D02*
X10943725Y-13913136D01*
X10943725Y-13913136D02*
X10934201Y-13875041D01*
X10934201Y-13875041D02*
X10934201Y-13827422D01*
X10934201Y-13827422D02*
X10943725Y-13789327D01*
X10943725Y-13789327D02*
X10953249Y-13770279D01*
X10953249Y-13770279D02*
X10962773Y-13760755D01*
X10962773Y-13760755D02*
X10981820Y-13751232D01*
X11134201Y-13951232D02*
X11134201Y-13817898D01*
X11134201Y-13836946D02*
X11143725Y-13827422D01*
X11143725Y-13827422D02*
X11162773Y-13817898D01*
X11162773Y-13817898D02*
X11191344Y-13817898D01*
X11191344Y-13817898D02*
X11210392Y-13827422D01*
X11210392Y-13827422D02*
X11219915Y-13846470D01*
X11219915Y-13846470D02*
X11219915Y-13951232D01*
X11219915Y-13846470D02*
X11229439Y-13827422D01*
X11229439Y-13827422D02*
X11248487Y-13817898D01*
X11248487Y-13817898D02*
X11277058Y-13817898D01*
X11277058Y-13817898D02*
X11296106Y-13827422D01*
X11296106Y-13827422D02*
X11305630Y-13846470D01*
X11305630Y-13846470D02*
X11305630Y-13951232D01*
X11400868Y-13951232D02*
X11400868Y-13817898D01*
X11400868Y-13836946D02*
X11410392Y-13827422D01*
X11410392Y-13827422D02*
X11429439Y-13817898D01*
X11429439Y-13817898D02*
X11458011Y-13817898D01*
X11458011Y-13817898D02*
X11477058Y-13827422D01*
X11477058Y-13827422D02*
X11486582Y-13846470D01*
X11486582Y-13846470D02*
X11486582Y-13951232D01*
X11486582Y-13846470D02*
X11496106Y-13827422D01*
X11496106Y-13827422D02*
X11515153Y-13817898D01*
X11515153Y-13817898D02*
X11543725Y-13817898D01*
X11543725Y-13817898D02*
X11562773Y-13827422D01*
X11562773Y-13827422D02*
X11572296Y-13846470D01*
X11572296Y-13846470D02*
X11572296Y-13951232D01*
X11962773Y-13741708D02*
X11791344Y-13998851D01*
X12219915Y-13751232D02*
X12238963Y-13751232D01*
X12238963Y-13751232D02*
X12258011Y-13760755D01*
X12258011Y-13760755D02*
X12267535Y-13770279D01*
X12267535Y-13770279D02*
X12277058Y-13789327D01*
X12277058Y-13789327D02*
X12286582Y-13827422D01*
X12286582Y-13827422D02*
X12286582Y-13875041D01*
X12286582Y-13875041D02*
X12277058Y-13913136D01*
X12277058Y-13913136D02*
X12267535Y-13932184D01*
X12267535Y-13932184D02*
X12258011Y-13941708D01*
X12258011Y-13941708D02*
X12238963Y-13951232D01*
X12238963Y-13951232D02*
X12219915Y-13951232D01*
X12219915Y-13951232D02*
X12200868Y-13941708D01*
X12200868Y-13941708D02*
X12191344Y-13932184D01*
X12191344Y-13932184D02*
X12181820Y-13913136D01*
X12181820Y-13913136D02*
X12172296Y-13875041D01*
X12172296Y-13875041D02*
X12172296Y-13827422D01*
X12172296Y-13827422D02*
X12181820Y-13789327D01*
X12181820Y-13789327D02*
X12191344Y-13770279D01*
X12191344Y-13770279D02*
X12200868Y-13760755D01*
X12200868Y-13760755D02*
X12219915Y-13751232D01*
X12372296Y-13932184D02*
X12381820Y-13941708D01*
X12381820Y-13941708D02*
X12372296Y-13951232D01*
X12372296Y-13951232D02*
X12362773Y-13941708D01*
X12362773Y-13941708D02*
X12372296Y-13932184D01*
X12372296Y-13932184D02*
X12372296Y-13951232D01*
X12505630Y-13751232D02*
X12524677Y-13751232D01*
X12524677Y-13751232D02*
X12543725Y-13760755D01*
X12543725Y-13760755D02*
X12553249Y-13770279D01*
X12553249Y-13770279D02*
X12562773Y-13789327D01*
X12562773Y-13789327D02*
X12572296Y-13827422D01*
X12572296Y-13827422D02*
X12572296Y-13875041D01*
X12572296Y-13875041D02*
X12562773Y-13913136D01*
X12562773Y-13913136D02*
X12553249Y-13932184D01*
X12553249Y-13932184D02*
X12543725Y-13941708D01*
X12543725Y-13941708D02*
X12524677Y-13951232D01*
X12524677Y-13951232D02*
X12505630Y-13951232D01*
X12505630Y-13951232D02*
X12486582Y-13941708D01*
X12486582Y-13941708D02*
X12477058Y-13932184D01*
X12477058Y-13932184D02*
X12467535Y-13913136D01*
X12467535Y-13913136D02*
X12458011Y-13875041D01*
X12458011Y-13875041D02*
X12458011Y-13827422D01*
X12458011Y-13827422D02*
X12467535Y-13789327D01*
X12467535Y-13789327D02*
X12477058Y-13770279D01*
X12477058Y-13770279D02*
X12486582Y-13760755D01*
X12486582Y-13760755D02*
X12505630Y-13751232D01*
X12762773Y-13951232D02*
X12648487Y-13951232D01*
X12705630Y-13951232D02*
X12705630Y-13751232D01*
X12705630Y-13751232D02*
X12686582Y-13779803D01*
X12686582Y-13779803D02*
X12667535Y-13798851D01*
X12667535Y-13798851D02*
X12648487Y-13808374D01*
X12953249Y-13951232D02*
X12838963Y-13951232D01*
X12896106Y-13951232D02*
X12896106Y-13751232D01*
X12896106Y-13751232D02*
X12877058Y-13779803D01*
X12877058Y-13779803D02*
X12858011Y-13798851D01*
X12858011Y-13798851D02*
X12838963Y-13808374D01*
X13067535Y-13836946D02*
X13048487Y-13827422D01*
X13048487Y-13827422D02*
X13038963Y-13817898D01*
X13038963Y-13817898D02*
X13029439Y-13798851D01*
X13029439Y-13798851D02*
X13029439Y-13789327D01*
X13029439Y-13789327D02*
X13038963Y-13770279D01*
X13038963Y-13770279D02*
X13048487Y-13760755D01*
X13048487Y-13760755D02*
X13067535Y-13751232D01*
X13067535Y-13751232D02*
X13105630Y-13751232D01*
X13105630Y-13751232D02*
X13124677Y-13760755D01*
X13124677Y-13760755D02*
X13134201Y-13770279D01*
X13134201Y-13770279D02*
X13143725Y-13789327D01*
X13143725Y-13789327D02*
X13143725Y-13798851D01*
X13143725Y-13798851D02*
X13134201Y-13817898D01*
X13134201Y-13817898D02*
X13124677Y-13827422D01*
X13124677Y-13827422D02*
X13105630Y-13836946D01*
X13105630Y-13836946D02*
X13067535Y-13836946D01*
X13067535Y-13836946D02*
X13048487Y-13846470D01*
X13048487Y-13846470D02*
X13038963Y-13855994D01*
X13038963Y-13855994D02*
X13029439Y-13875041D01*
X13029439Y-13875041D02*
X13029439Y-13913136D01*
X13029439Y-13913136D02*
X13038963Y-13932184D01*
X13038963Y-13932184D02*
X13048487Y-13941708D01*
X13048487Y-13941708D02*
X13067535Y-13951232D01*
X13067535Y-13951232D02*
X13105630Y-13951232D01*
X13105630Y-13951232D02*
X13124677Y-13941708D01*
X13124677Y-13941708D02*
X13134201Y-13932184D01*
X13134201Y-13932184D02*
X13143725Y-13913136D01*
X13143725Y-13913136D02*
X13143725Y-13875041D01*
X13143725Y-13875041D02*
X13134201Y-13855994D01*
X13134201Y-13855994D02*
X13124677Y-13846470D01*
X13124677Y-13846470D02*
X13105630Y-13836946D01*
X13219916Y-13751232D02*
X13219916Y-13789327D01*
X13296106Y-13751232D02*
X13296106Y-13789327D01*
X13591344Y-14027422D02*
X13581820Y-14017898D01*
X13581820Y-14017898D02*
X13562773Y-13989327D01*
X13562773Y-13989327D02*
X13553249Y-13970279D01*
X13553249Y-13970279D02*
X13543725Y-13941708D01*
X13543725Y-13941708D02*
X13534201Y-13894089D01*
X13534201Y-13894089D02*
X13534201Y-13855994D01*
X13534201Y-13855994D02*
X13543725Y-13808374D01*
X13543725Y-13808374D02*
X13553249Y-13779803D01*
X13553249Y-13779803D02*
X13562773Y-13760755D01*
X13562773Y-13760755D02*
X13581820Y-13732184D01*
X13581820Y-13732184D02*
X13591344Y-13722660D01*
X13772297Y-13951232D02*
X13658011Y-13951232D01*
X13715154Y-13951232D02*
X13715154Y-13751232D01*
X13715154Y-13751232D02*
X13696106Y-13779803D01*
X13696106Y-13779803D02*
X13677058Y-13798851D01*
X13677058Y-13798851D02*
X13658011Y-13808374D01*
X13848487Y-13770279D02*
X13858011Y-13760755D01*
X13858011Y-13760755D02*
X13877058Y-13751232D01*
X13877058Y-13751232D02*
X13924678Y-13751232D01*
X13924678Y-13751232D02*
X13943725Y-13760755D01*
X13943725Y-13760755D02*
X13953249Y-13770279D01*
X13953249Y-13770279D02*
X13962773Y-13789327D01*
X13962773Y-13789327D02*
X13962773Y-13808374D01*
X13962773Y-13808374D02*
X13953249Y-13836946D01*
X13953249Y-13836946D02*
X13838963Y-13951232D01*
X13838963Y-13951232D02*
X13962773Y-13951232D01*
X14200868Y-13951232D02*
X14200868Y-13751232D01*
X14286582Y-13951232D02*
X14286582Y-13846470D01*
X14286582Y-13846470D02*
X14277059Y-13827422D01*
X14277059Y-13827422D02*
X14258011Y-13817898D01*
X14258011Y-13817898D02*
X14229439Y-13817898D01*
X14229439Y-13817898D02*
X14210392Y-13827422D01*
X14210392Y-13827422D02*
X14200868Y-13836946D01*
X14410392Y-13951232D02*
X14391344Y-13941708D01*
X14391344Y-13941708D02*
X14381820Y-13932184D01*
X14381820Y-13932184D02*
X14372297Y-13913136D01*
X14372297Y-13913136D02*
X14372297Y-13855994D01*
X14372297Y-13855994D02*
X14381820Y-13836946D01*
X14381820Y-13836946D02*
X14391344Y-13827422D01*
X14391344Y-13827422D02*
X14410392Y-13817898D01*
X14410392Y-13817898D02*
X14438963Y-13817898D01*
X14438963Y-13817898D02*
X14458011Y-13827422D01*
X14458011Y-13827422D02*
X14467535Y-13836946D01*
X14467535Y-13836946D02*
X14477059Y-13855994D01*
X14477059Y-13855994D02*
X14477059Y-13913136D01*
X14477059Y-13913136D02*
X14467535Y-13932184D01*
X14467535Y-13932184D02*
X14458011Y-13941708D01*
X14458011Y-13941708D02*
X14438963Y-13951232D01*
X14438963Y-13951232D02*
X14410392Y-13951232D01*
X14591344Y-13951232D02*
X14572297Y-13941708D01*
X14572297Y-13941708D02*
X14562773Y-13922660D01*
X14562773Y-13922660D02*
X14562773Y-13751232D01*
X14743725Y-13941708D02*
X14724678Y-13951232D01*
X14724678Y-13951232D02*
X14686582Y-13951232D01*
X14686582Y-13951232D02*
X14667535Y-13941708D01*
X14667535Y-13941708D02*
X14658011Y-13922660D01*
X14658011Y-13922660D02*
X14658011Y-13846470D01*
X14658011Y-13846470D02*
X14667535Y-13827422D01*
X14667535Y-13827422D02*
X14686582Y-13817898D01*
X14686582Y-13817898D02*
X14724678Y-13817898D01*
X14724678Y-13817898D02*
X14743725Y-13827422D01*
X14743725Y-13827422D02*
X14753249Y-13846470D01*
X14753249Y-13846470D02*
X14753249Y-13865517D01*
X14753249Y-13865517D02*
X14658011Y-13884565D01*
X14829440Y-13941708D02*
X14848487Y-13951232D01*
X14848487Y-13951232D02*
X14886582Y-13951232D01*
X14886582Y-13951232D02*
X14905630Y-13941708D01*
X14905630Y-13941708D02*
X14915154Y-13922660D01*
X14915154Y-13922660D02*
X14915154Y-13913136D01*
X14915154Y-13913136D02*
X14905630Y-13894089D01*
X14905630Y-13894089D02*
X14886582Y-13884565D01*
X14886582Y-13884565D02*
X14858011Y-13884565D01*
X14858011Y-13884565D02*
X14838963Y-13875041D01*
X14838963Y-13875041D02*
X14829440Y-13855994D01*
X14829440Y-13855994D02*
X14829440Y-13846470D01*
X14829440Y-13846470D02*
X14838963Y-13827422D01*
X14838963Y-13827422D02*
X14858011Y-13817898D01*
X14858011Y-13817898D02*
X14886582Y-13817898D01*
X14886582Y-13817898D02*
X14905630Y-13827422D01*
X14981821Y-14027422D02*
X14991344Y-14017898D01*
X14991344Y-14017898D02*
X15010392Y-13989327D01*
X15010392Y-13989327D02*
X15019916Y-13970279D01*
X15019916Y-13970279D02*
X15029440Y-13941708D01*
X15029440Y-13941708D02*
X15038963Y-13894089D01*
X15038963Y-13894089D02*
X15038963Y-13855994D01*
X15038963Y-13855994D02*
X15029440Y-13808374D01*
X15029440Y-13808374D02*
X15019916Y-13779803D01*
X15019916Y-13779803D02*
X15010392Y-13760755D01*
X15010392Y-13760755D02*
X14991344Y-13732184D01*
X14991344Y-13732184D02*
X14981821Y-13722660D01*
D11*
X10016281Y-14123748D02*
G75*
G02*
X9936281Y-14123748I-40000J0D01*
G01*
X9936281Y-14123748D02*
G75*
G02*
X10016281Y-14123748I40000J0D01*
G01*
D10*
X10315153Y-14015232D02*
X10334201Y-14015232D01*
X10334201Y-14015232D02*
X10353249Y-14024755D01*
X10353249Y-14024755D02*
X10362773Y-14034279D01*
X10362773Y-14034279D02*
X10372296Y-14053327D01*
X10372296Y-14053327D02*
X10381820Y-14091422D01*
X10381820Y-14091422D02*
X10381820Y-14139041D01*
X10381820Y-14139041D02*
X10372296Y-14177136D01*
X10372296Y-14177136D02*
X10362773Y-14196184D01*
X10362773Y-14196184D02*
X10353249Y-14205708D01*
X10353249Y-14205708D02*
X10334201Y-14215232D01*
X10334201Y-14215232D02*
X10315153Y-14215232D01*
X10315153Y-14215232D02*
X10296106Y-14205708D01*
X10296106Y-14205708D02*
X10286582Y-14196184D01*
X10286582Y-14196184D02*
X10277058Y-14177136D01*
X10277058Y-14177136D02*
X10267534Y-14139041D01*
X10267534Y-14139041D02*
X10267534Y-14091422D01*
X10267534Y-14091422D02*
X10277058Y-14053327D01*
X10277058Y-14053327D02*
X10286582Y-14034279D01*
X10286582Y-14034279D02*
X10296106Y-14024755D01*
X10296106Y-14024755D02*
X10315153Y-14015232D01*
X10467534Y-14196184D02*
X10477058Y-14205708D01*
X10477058Y-14205708D02*
X10467534Y-14215232D01*
X10467534Y-14215232D02*
X10458011Y-14205708D01*
X10458011Y-14205708D02*
X10467534Y-14196184D01*
X10467534Y-14196184D02*
X10467534Y-14215232D01*
X10591344Y-14100946D02*
X10572296Y-14091422D01*
X10572296Y-14091422D02*
X10562773Y-14081898D01*
X10562773Y-14081898D02*
X10553249Y-14062851D01*
X10553249Y-14062851D02*
X10553249Y-14053327D01*
X10553249Y-14053327D02*
X10562773Y-14034279D01*
X10562773Y-14034279D02*
X10572296Y-14024755D01*
X10572296Y-14024755D02*
X10591344Y-14015232D01*
X10591344Y-14015232D02*
X10629439Y-14015232D01*
X10629439Y-14015232D02*
X10648487Y-14024755D01*
X10648487Y-14024755D02*
X10658011Y-14034279D01*
X10658011Y-14034279D02*
X10667534Y-14053327D01*
X10667534Y-14053327D02*
X10667534Y-14062851D01*
X10667534Y-14062851D02*
X10658011Y-14081898D01*
X10658011Y-14081898D02*
X10648487Y-14091422D01*
X10648487Y-14091422D02*
X10629439Y-14100946D01*
X10629439Y-14100946D02*
X10591344Y-14100946D01*
X10591344Y-14100946D02*
X10572296Y-14110470D01*
X10572296Y-14110470D02*
X10562773Y-14119994D01*
X10562773Y-14119994D02*
X10553249Y-14139041D01*
X10553249Y-14139041D02*
X10553249Y-14177136D01*
X10553249Y-14177136D02*
X10562773Y-14196184D01*
X10562773Y-14196184D02*
X10572296Y-14205708D01*
X10572296Y-14205708D02*
X10591344Y-14215232D01*
X10591344Y-14215232D02*
X10629439Y-14215232D01*
X10629439Y-14215232D02*
X10648487Y-14205708D01*
X10648487Y-14205708D02*
X10658011Y-14196184D01*
X10658011Y-14196184D02*
X10667534Y-14177136D01*
X10667534Y-14177136D02*
X10667534Y-14139041D01*
X10667534Y-14139041D02*
X10658011Y-14119994D01*
X10658011Y-14119994D02*
X10648487Y-14110470D01*
X10648487Y-14110470D02*
X10629439Y-14100946D01*
X10791344Y-14015232D02*
X10810392Y-14015232D01*
X10810392Y-14015232D02*
X10829439Y-14024755D01*
X10829439Y-14024755D02*
X10838963Y-14034279D01*
X10838963Y-14034279D02*
X10848487Y-14053327D01*
X10848487Y-14053327D02*
X10858011Y-14091422D01*
X10858011Y-14091422D02*
X10858011Y-14139041D01*
X10858011Y-14139041D02*
X10848487Y-14177136D01*
X10848487Y-14177136D02*
X10838963Y-14196184D01*
X10838963Y-14196184D02*
X10829439Y-14205708D01*
X10829439Y-14205708D02*
X10810392Y-14215232D01*
X10810392Y-14215232D02*
X10791344Y-14215232D01*
X10791344Y-14215232D02*
X10772296Y-14205708D01*
X10772296Y-14205708D02*
X10762773Y-14196184D01*
X10762773Y-14196184D02*
X10753249Y-14177136D01*
X10753249Y-14177136D02*
X10743725Y-14139041D01*
X10743725Y-14139041D02*
X10743725Y-14091422D01*
X10743725Y-14091422D02*
X10753249Y-14053327D01*
X10753249Y-14053327D02*
X10762773Y-14034279D01*
X10762773Y-14034279D02*
X10772296Y-14024755D01*
X10772296Y-14024755D02*
X10791344Y-14015232D01*
X10981820Y-14015232D02*
X11000868Y-14015232D01*
X11000868Y-14015232D02*
X11019915Y-14024755D01*
X11019915Y-14024755D02*
X11029439Y-14034279D01*
X11029439Y-14034279D02*
X11038963Y-14053327D01*
X11038963Y-14053327D02*
X11048487Y-14091422D01*
X11048487Y-14091422D02*
X11048487Y-14139041D01*
X11048487Y-14139041D02*
X11038963Y-14177136D01*
X11038963Y-14177136D02*
X11029439Y-14196184D01*
X11029439Y-14196184D02*
X11019915Y-14205708D01*
X11019915Y-14205708D02*
X11000868Y-14215232D01*
X11000868Y-14215232D02*
X10981820Y-14215232D01*
X10981820Y-14215232D02*
X10962773Y-14205708D01*
X10962773Y-14205708D02*
X10953249Y-14196184D01*
X10953249Y-14196184D02*
X10943725Y-14177136D01*
X10943725Y-14177136D02*
X10934201Y-14139041D01*
X10934201Y-14139041D02*
X10934201Y-14091422D01*
X10934201Y-14091422D02*
X10943725Y-14053327D01*
X10943725Y-14053327D02*
X10953249Y-14034279D01*
X10953249Y-14034279D02*
X10962773Y-14024755D01*
X10962773Y-14024755D02*
X10981820Y-14015232D01*
X11134201Y-14215232D02*
X11134201Y-14081898D01*
X11134201Y-14100946D02*
X11143725Y-14091422D01*
X11143725Y-14091422D02*
X11162773Y-14081898D01*
X11162773Y-14081898D02*
X11191344Y-14081898D01*
X11191344Y-14081898D02*
X11210392Y-14091422D01*
X11210392Y-14091422D02*
X11219915Y-14110470D01*
X11219915Y-14110470D02*
X11219915Y-14215232D01*
X11219915Y-14110470D02*
X11229439Y-14091422D01*
X11229439Y-14091422D02*
X11248487Y-14081898D01*
X11248487Y-14081898D02*
X11277058Y-14081898D01*
X11277058Y-14081898D02*
X11296106Y-14091422D01*
X11296106Y-14091422D02*
X11305630Y-14110470D01*
X11305630Y-14110470D02*
X11305630Y-14215232D01*
X11400868Y-14215232D02*
X11400868Y-14081898D01*
X11400868Y-14100946D02*
X11410392Y-14091422D01*
X11410392Y-14091422D02*
X11429439Y-14081898D01*
X11429439Y-14081898D02*
X11458011Y-14081898D01*
X11458011Y-14081898D02*
X11477058Y-14091422D01*
X11477058Y-14091422D02*
X11486582Y-14110470D01*
X11486582Y-14110470D02*
X11486582Y-14215232D01*
X11486582Y-14110470D02*
X11496106Y-14091422D01*
X11496106Y-14091422D02*
X11515153Y-14081898D01*
X11515153Y-14081898D02*
X11543725Y-14081898D01*
X11543725Y-14081898D02*
X11562773Y-14091422D01*
X11562773Y-14091422D02*
X11572296Y-14110470D01*
X11572296Y-14110470D02*
X11572296Y-14215232D01*
X11962773Y-14005708D02*
X11791344Y-14262851D01*
X12219915Y-14015232D02*
X12238963Y-14015232D01*
X12238963Y-14015232D02*
X12258011Y-14024755D01*
X12258011Y-14024755D02*
X12267535Y-14034279D01*
X12267535Y-14034279D02*
X12277058Y-14053327D01*
X12277058Y-14053327D02*
X12286582Y-14091422D01*
X12286582Y-14091422D02*
X12286582Y-14139041D01*
X12286582Y-14139041D02*
X12277058Y-14177136D01*
X12277058Y-14177136D02*
X12267535Y-14196184D01*
X12267535Y-14196184D02*
X12258011Y-14205708D01*
X12258011Y-14205708D02*
X12238963Y-14215232D01*
X12238963Y-14215232D02*
X12219915Y-14215232D01*
X12219915Y-14215232D02*
X12200868Y-14205708D01*
X12200868Y-14205708D02*
X12191344Y-14196184D01*
X12191344Y-14196184D02*
X12181820Y-14177136D01*
X12181820Y-14177136D02*
X12172296Y-14139041D01*
X12172296Y-14139041D02*
X12172296Y-14091422D01*
X12172296Y-14091422D02*
X12181820Y-14053327D01*
X12181820Y-14053327D02*
X12191344Y-14034279D01*
X12191344Y-14034279D02*
X12200868Y-14024755D01*
X12200868Y-14024755D02*
X12219915Y-14015232D01*
X12372296Y-14196184D02*
X12381820Y-14205708D01*
X12381820Y-14205708D02*
X12372296Y-14215232D01*
X12372296Y-14215232D02*
X12362773Y-14205708D01*
X12362773Y-14205708D02*
X12372296Y-14196184D01*
X12372296Y-14196184D02*
X12372296Y-14215232D01*
X12505630Y-14015232D02*
X12524677Y-14015232D01*
X12524677Y-14015232D02*
X12543725Y-14024755D01*
X12543725Y-14024755D02*
X12553249Y-14034279D01*
X12553249Y-14034279D02*
X12562773Y-14053327D01*
X12562773Y-14053327D02*
X12572296Y-14091422D01*
X12572296Y-14091422D02*
X12572296Y-14139041D01*
X12572296Y-14139041D02*
X12562773Y-14177136D01*
X12562773Y-14177136D02*
X12553249Y-14196184D01*
X12553249Y-14196184D02*
X12543725Y-14205708D01*
X12543725Y-14205708D02*
X12524677Y-14215232D01*
X12524677Y-14215232D02*
X12505630Y-14215232D01*
X12505630Y-14215232D02*
X12486582Y-14205708D01*
X12486582Y-14205708D02*
X12477058Y-14196184D01*
X12477058Y-14196184D02*
X12467535Y-14177136D01*
X12467535Y-14177136D02*
X12458011Y-14139041D01*
X12458011Y-14139041D02*
X12458011Y-14091422D01*
X12458011Y-14091422D02*
X12467535Y-14053327D01*
X12467535Y-14053327D02*
X12477058Y-14034279D01*
X12477058Y-14034279D02*
X12486582Y-14024755D01*
X12486582Y-14024755D02*
X12505630Y-14015232D01*
X12638963Y-14015232D02*
X12762773Y-14015232D01*
X12762773Y-14015232D02*
X12696106Y-14091422D01*
X12696106Y-14091422D02*
X12724677Y-14091422D01*
X12724677Y-14091422D02*
X12743725Y-14100946D01*
X12743725Y-14100946D02*
X12753249Y-14110470D01*
X12753249Y-14110470D02*
X12762773Y-14129517D01*
X12762773Y-14129517D02*
X12762773Y-14177136D01*
X12762773Y-14177136D02*
X12753249Y-14196184D01*
X12753249Y-14196184D02*
X12743725Y-14205708D01*
X12743725Y-14205708D02*
X12724677Y-14215232D01*
X12724677Y-14215232D02*
X12667535Y-14215232D01*
X12667535Y-14215232D02*
X12648487Y-14205708D01*
X12648487Y-14205708D02*
X12638963Y-14196184D01*
X12953249Y-14215232D02*
X12838963Y-14215232D01*
X12896106Y-14215232D02*
X12896106Y-14015232D01*
X12896106Y-14015232D02*
X12877058Y-14043803D01*
X12877058Y-14043803D02*
X12858011Y-14062851D01*
X12858011Y-14062851D02*
X12838963Y-14072374D01*
X13134201Y-14015232D02*
X13038963Y-14015232D01*
X13038963Y-14015232D02*
X13029439Y-14110470D01*
X13029439Y-14110470D02*
X13038963Y-14100946D01*
X13038963Y-14100946D02*
X13058011Y-14091422D01*
X13058011Y-14091422D02*
X13105630Y-14091422D01*
X13105630Y-14091422D02*
X13124677Y-14100946D01*
X13124677Y-14100946D02*
X13134201Y-14110470D01*
X13134201Y-14110470D02*
X13143725Y-14129517D01*
X13143725Y-14129517D02*
X13143725Y-14177136D01*
X13143725Y-14177136D02*
X13134201Y-14196184D01*
X13134201Y-14196184D02*
X13124677Y-14205708D01*
X13124677Y-14205708D02*
X13105630Y-14215232D01*
X13105630Y-14215232D02*
X13058011Y-14215232D01*
X13058011Y-14215232D02*
X13038963Y-14205708D01*
X13038963Y-14205708D02*
X13029439Y-14196184D01*
X13219916Y-14015232D02*
X13219916Y-14053327D01*
X13296106Y-14015232D02*
X13296106Y-14053327D01*
X13591344Y-14291422D02*
X13581820Y-14281898D01*
X13581820Y-14281898D02*
X13562773Y-14253327D01*
X13562773Y-14253327D02*
X13553249Y-14234279D01*
X13553249Y-14234279D02*
X13543725Y-14205708D01*
X13543725Y-14205708D02*
X13534201Y-14158089D01*
X13534201Y-14158089D02*
X13534201Y-14119994D01*
X13534201Y-14119994D02*
X13543725Y-14072374D01*
X13543725Y-14072374D02*
X13553249Y-14043803D01*
X13553249Y-14043803D02*
X13562773Y-14024755D01*
X13562773Y-14024755D02*
X13581820Y-13996184D01*
X13581820Y-13996184D02*
X13591344Y-13986660D01*
X13762773Y-14015232D02*
X13667535Y-14015232D01*
X13667535Y-14015232D02*
X13658011Y-14110470D01*
X13658011Y-14110470D02*
X13667535Y-14100946D01*
X13667535Y-14100946D02*
X13686582Y-14091422D01*
X13686582Y-14091422D02*
X13734201Y-14091422D01*
X13734201Y-14091422D02*
X13753249Y-14100946D01*
X13753249Y-14100946D02*
X13762773Y-14110470D01*
X13762773Y-14110470D02*
X13772297Y-14129517D01*
X13772297Y-14129517D02*
X13772297Y-14177136D01*
X13772297Y-14177136D02*
X13762773Y-14196184D01*
X13762773Y-14196184D02*
X13753249Y-14205708D01*
X13753249Y-14205708D02*
X13734201Y-14215232D01*
X13734201Y-14215232D02*
X13686582Y-14215232D01*
X13686582Y-14215232D02*
X13667535Y-14205708D01*
X13667535Y-14205708D02*
X13658011Y-14196184D01*
X13896106Y-14015232D02*
X13915154Y-14015232D01*
X13915154Y-14015232D02*
X13934201Y-14024755D01*
X13934201Y-14024755D02*
X13943725Y-14034279D01*
X13943725Y-14034279D02*
X13953249Y-14053327D01*
X13953249Y-14053327D02*
X13962773Y-14091422D01*
X13962773Y-14091422D02*
X13962773Y-14139041D01*
X13962773Y-14139041D02*
X13953249Y-14177136D01*
X13953249Y-14177136D02*
X13943725Y-14196184D01*
X13943725Y-14196184D02*
X13934201Y-14205708D01*
X13934201Y-14205708D02*
X13915154Y-14215232D01*
X13915154Y-14215232D02*
X13896106Y-14215232D01*
X13896106Y-14215232D02*
X13877058Y-14205708D01*
X13877058Y-14205708D02*
X13867535Y-14196184D01*
X13867535Y-14196184D02*
X13858011Y-14177136D01*
X13858011Y-14177136D02*
X13848487Y-14139041D01*
X13848487Y-14139041D02*
X13848487Y-14091422D01*
X13848487Y-14091422D02*
X13858011Y-14053327D01*
X13858011Y-14053327D02*
X13867535Y-14034279D01*
X13867535Y-14034279D02*
X13877058Y-14024755D01*
X13877058Y-14024755D02*
X13896106Y-14015232D01*
X14200868Y-14215232D02*
X14200868Y-14015232D01*
X14286582Y-14215232D02*
X14286582Y-14110470D01*
X14286582Y-14110470D02*
X14277059Y-14091422D01*
X14277059Y-14091422D02*
X14258011Y-14081898D01*
X14258011Y-14081898D02*
X14229439Y-14081898D01*
X14229439Y-14081898D02*
X14210392Y-14091422D01*
X14210392Y-14091422D02*
X14200868Y-14100946D01*
X14410392Y-14215232D02*
X14391344Y-14205708D01*
X14391344Y-14205708D02*
X14381820Y-14196184D01*
X14381820Y-14196184D02*
X14372297Y-14177136D01*
X14372297Y-14177136D02*
X14372297Y-14119994D01*
X14372297Y-14119994D02*
X14381820Y-14100946D01*
X14381820Y-14100946D02*
X14391344Y-14091422D01*
X14391344Y-14091422D02*
X14410392Y-14081898D01*
X14410392Y-14081898D02*
X14438963Y-14081898D01*
X14438963Y-14081898D02*
X14458011Y-14091422D01*
X14458011Y-14091422D02*
X14467535Y-14100946D01*
X14467535Y-14100946D02*
X14477059Y-14119994D01*
X14477059Y-14119994D02*
X14477059Y-14177136D01*
X14477059Y-14177136D02*
X14467535Y-14196184D01*
X14467535Y-14196184D02*
X14458011Y-14205708D01*
X14458011Y-14205708D02*
X14438963Y-14215232D01*
X14438963Y-14215232D02*
X14410392Y-14215232D01*
X14591344Y-14215232D02*
X14572297Y-14205708D01*
X14572297Y-14205708D02*
X14562773Y-14186660D01*
X14562773Y-14186660D02*
X14562773Y-14015232D01*
X14743725Y-14205708D02*
X14724678Y-14215232D01*
X14724678Y-14215232D02*
X14686582Y-14215232D01*
X14686582Y-14215232D02*
X14667535Y-14205708D01*
X14667535Y-14205708D02*
X14658011Y-14186660D01*
X14658011Y-14186660D02*
X14658011Y-14110470D01*
X14658011Y-14110470D02*
X14667535Y-14091422D01*
X14667535Y-14091422D02*
X14686582Y-14081898D01*
X14686582Y-14081898D02*
X14724678Y-14081898D01*
X14724678Y-14081898D02*
X14743725Y-14091422D01*
X14743725Y-14091422D02*
X14753249Y-14110470D01*
X14753249Y-14110470D02*
X14753249Y-14129517D01*
X14753249Y-14129517D02*
X14658011Y-14148565D01*
X14829440Y-14205708D02*
X14848487Y-14215232D01*
X14848487Y-14215232D02*
X14886582Y-14215232D01*
X14886582Y-14215232D02*
X14905630Y-14205708D01*
X14905630Y-14205708D02*
X14915154Y-14186660D01*
X14915154Y-14186660D02*
X14915154Y-14177136D01*
X14915154Y-14177136D02*
X14905630Y-14158089D01*
X14905630Y-14158089D02*
X14886582Y-14148565D01*
X14886582Y-14148565D02*
X14858011Y-14148565D01*
X14858011Y-14148565D02*
X14838963Y-14139041D01*
X14838963Y-14139041D02*
X14829440Y-14119994D01*
X14829440Y-14119994D02*
X14829440Y-14110470D01*
X14829440Y-14110470D02*
X14838963Y-14091422D01*
X14838963Y-14091422D02*
X14858011Y-14081898D01*
X14858011Y-14081898D02*
X14886582Y-14081898D01*
X14886582Y-14081898D02*
X14905630Y-14091422D01*
X14981821Y-14291422D02*
X14991344Y-14281898D01*
X14991344Y-14281898D02*
X15010392Y-14253327D01*
X15010392Y-14253327D02*
X15019916Y-14234279D01*
X15019916Y-14234279D02*
X15029440Y-14205708D01*
X15029440Y-14205708D02*
X15038963Y-14158089D01*
X15038963Y-14158089D02*
X15038963Y-14119994D01*
X15038963Y-14119994D02*
X15029440Y-14072374D01*
X15029440Y-14072374D02*
X15019916Y-14043803D01*
X15019916Y-14043803D02*
X15010392Y-14024755D01*
X15010392Y-14024755D02*
X14991344Y-13996184D01*
X14991344Y-13996184D02*
X14981821Y-13986660D01*
D11*
X9966281Y-14337748D02*
X9966281Y-14437748D01*
X9916281Y-14387748D02*
X10016281Y-14387748D01*
D10*
X10381820Y-14479232D02*
X10267534Y-14479232D01*
X10324677Y-14479232D02*
X10324677Y-14279232D01*
X10324677Y-14279232D02*
X10305630Y-14307803D01*
X10305630Y-14307803D02*
X10286582Y-14326851D01*
X10286582Y-14326851D02*
X10267534Y-14336374D01*
X10467534Y-14460184D02*
X10477058Y-14469708D01*
X10477058Y-14469708D02*
X10467534Y-14479232D01*
X10467534Y-14479232D02*
X10458011Y-14469708D01*
X10458011Y-14469708D02*
X10467534Y-14460184D01*
X10467534Y-14460184D02*
X10467534Y-14479232D01*
X10600868Y-14279232D02*
X10619915Y-14279232D01*
X10619915Y-14279232D02*
X10638963Y-14288755D01*
X10638963Y-14288755D02*
X10648487Y-14298279D01*
X10648487Y-14298279D02*
X10658011Y-14317327D01*
X10658011Y-14317327D02*
X10667534Y-14355422D01*
X10667534Y-14355422D02*
X10667534Y-14403041D01*
X10667534Y-14403041D02*
X10658011Y-14441136D01*
X10658011Y-14441136D02*
X10648487Y-14460184D01*
X10648487Y-14460184D02*
X10638963Y-14469708D01*
X10638963Y-14469708D02*
X10619915Y-14479232D01*
X10619915Y-14479232D02*
X10600868Y-14479232D01*
X10600868Y-14479232D02*
X10581820Y-14469708D01*
X10581820Y-14469708D02*
X10572296Y-14460184D01*
X10572296Y-14460184D02*
X10562773Y-14441136D01*
X10562773Y-14441136D02*
X10553249Y-14403041D01*
X10553249Y-14403041D02*
X10553249Y-14355422D01*
X10553249Y-14355422D02*
X10562773Y-14317327D01*
X10562773Y-14317327D02*
X10572296Y-14298279D01*
X10572296Y-14298279D02*
X10581820Y-14288755D01*
X10581820Y-14288755D02*
X10600868Y-14279232D01*
X10791344Y-14279232D02*
X10810392Y-14279232D01*
X10810392Y-14279232D02*
X10829439Y-14288755D01*
X10829439Y-14288755D02*
X10838963Y-14298279D01*
X10838963Y-14298279D02*
X10848487Y-14317327D01*
X10848487Y-14317327D02*
X10858011Y-14355422D01*
X10858011Y-14355422D02*
X10858011Y-14403041D01*
X10858011Y-14403041D02*
X10848487Y-14441136D01*
X10848487Y-14441136D02*
X10838963Y-14460184D01*
X10838963Y-14460184D02*
X10829439Y-14469708D01*
X10829439Y-14469708D02*
X10810392Y-14479232D01*
X10810392Y-14479232D02*
X10791344Y-14479232D01*
X10791344Y-14479232D02*
X10772296Y-14469708D01*
X10772296Y-14469708D02*
X10762773Y-14460184D01*
X10762773Y-14460184D02*
X10753249Y-14441136D01*
X10753249Y-14441136D02*
X10743725Y-14403041D01*
X10743725Y-14403041D02*
X10743725Y-14355422D01*
X10743725Y-14355422D02*
X10753249Y-14317327D01*
X10753249Y-14317327D02*
X10762773Y-14298279D01*
X10762773Y-14298279D02*
X10772296Y-14288755D01*
X10772296Y-14288755D02*
X10791344Y-14279232D01*
X10981820Y-14279232D02*
X11000868Y-14279232D01*
X11000868Y-14279232D02*
X11019915Y-14288755D01*
X11019915Y-14288755D02*
X11029439Y-14298279D01*
X11029439Y-14298279D02*
X11038963Y-14317327D01*
X11038963Y-14317327D02*
X11048487Y-14355422D01*
X11048487Y-14355422D02*
X11048487Y-14403041D01*
X11048487Y-14403041D02*
X11038963Y-14441136D01*
X11038963Y-14441136D02*
X11029439Y-14460184D01*
X11029439Y-14460184D02*
X11019915Y-14469708D01*
X11019915Y-14469708D02*
X11000868Y-14479232D01*
X11000868Y-14479232D02*
X10981820Y-14479232D01*
X10981820Y-14479232D02*
X10962773Y-14469708D01*
X10962773Y-14469708D02*
X10953249Y-14460184D01*
X10953249Y-14460184D02*
X10943725Y-14441136D01*
X10943725Y-14441136D02*
X10934201Y-14403041D01*
X10934201Y-14403041D02*
X10934201Y-14355422D01*
X10934201Y-14355422D02*
X10943725Y-14317327D01*
X10943725Y-14317327D02*
X10953249Y-14298279D01*
X10953249Y-14298279D02*
X10962773Y-14288755D01*
X10962773Y-14288755D02*
X10981820Y-14279232D01*
X11134201Y-14479232D02*
X11134201Y-14345898D01*
X11134201Y-14364946D02*
X11143725Y-14355422D01*
X11143725Y-14355422D02*
X11162773Y-14345898D01*
X11162773Y-14345898D02*
X11191344Y-14345898D01*
X11191344Y-14345898D02*
X11210392Y-14355422D01*
X11210392Y-14355422D02*
X11219915Y-14374470D01*
X11219915Y-14374470D02*
X11219915Y-14479232D01*
X11219915Y-14374470D02*
X11229439Y-14355422D01*
X11229439Y-14355422D02*
X11248487Y-14345898D01*
X11248487Y-14345898D02*
X11277058Y-14345898D01*
X11277058Y-14345898D02*
X11296106Y-14355422D01*
X11296106Y-14355422D02*
X11305630Y-14374470D01*
X11305630Y-14374470D02*
X11305630Y-14479232D01*
X11400868Y-14479232D02*
X11400868Y-14345898D01*
X11400868Y-14364946D02*
X11410392Y-14355422D01*
X11410392Y-14355422D02*
X11429439Y-14345898D01*
X11429439Y-14345898D02*
X11458011Y-14345898D01*
X11458011Y-14345898D02*
X11477058Y-14355422D01*
X11477058Y-14355422D02*
X11486582Y-14374470D01*
X11486582Y-14374470D02*
X11486582Y-14479232D01*
X11486582Y-14374470D02*
X11496106Y-14355422D01*
X11496106Y-14355422D02*
X11515153Y-14345898D01*
X11515153Y-14345898D02*
X11543725Y-14345898D01*
X11543725Y-14345898D02*
X11562773Y-14355422D01*
X11562773Y-14355422D02*
X11572296Y-14374470D01*
X11572296Y-14374470D02*
X11572296Y-14479232D01*
X11962773Y-14269708D02*
X11791344Y-14526851D01*
X12219915Y-14279232D02*
X12238963Y-14279232D01*
X12238963Y-14279232D02*
X12258011Y-14288755D01*
X12258011Y-14288755D02*
X12267535Y-14298279D01*
X12267535Y-14298279D02*
X12277058Y-14317327D01*
X12277058Y-14317327D02*
X12286582Y-14355422D01*
X12286582Y-14355422D02*
X12286582Y-14403041D01*
X12286582Y-14403041D02*
X12277058Y-14441136D01*
X12277058Y-14441136D02*
X12267535Y-14460184D01*
X12267535Y-14460184D02*
X12258011Y-14469708D01*
X12258011Y-14469708D02*
X12238963Y-14479232D01*
X12238963Y-14479232D02*
X12219915Y-14479232D01*
X12219915Y-14479232D02*
X12200868Y-14469708D01*
X12200868Y-14469708D02*
X12191344Y-14460184D01*
X12191344Y-14460184D02*
X12181820Y-14441136D01*
X12181820Y-14441136D02*
X12172296Y-14403041D01*
X12172296Y-14403041D02*
X12172296Y-14355422D01*
X12172296Y-14355422D02*
X12181820Y-14317327D01*
X12181820Y-14317327D02*
X12191344Y-14298279D01*
X12191344Y-14298279D02*
X12200868Y-14288755D01*
X12200868Y-14288755D02*
X12219915Y-14279232D01*
X12372296Y-14460184D02*
X12381820Y-14469708D01*
X12381820Y-14469708D02*
X12372296Y-14479232D01*
X12372296Y-14479232D02*
X12362773Y-14469708D01*
X12362773Y-14469708D02*
X12372296Y-14460184D01*
X12372296Y-14460184D02*
X12372296Y-14479232D01*
X12505630Y-14279232D02*
X12524677Y-14279232D01*
X12524677Y-14279232D02*
X12543725Y-14288755D01*
X12543725Y-14288755D02*
X12553249Y-14298279D01*
X12553249Y-14298279D02*
X12562773Y-14317327D01*
X12562773Y-14317327D02*
X12572296Y-14355422D01*
X12572296Y-14355422D02*
X12572296Y-14403041D01*
X12572296Y-14403041D02*
X12562773Y-14441136D01*
X12562773Y-14441136D02*
X12553249Y-14460184D01*
X12553249Y-14460184D02*
X12543725Y-14469708D01*
X12543725Y-14469708D02*
X12524677Y-14479232D01*
X12524677Y-14479232D02*
X12505630Y-14479232D01*
X12505630Y-14479232D02*
X12486582Y-14469708D01*
X12486582Y-14469708D02*
X12477058Y-14460184D01*
X12477058Y-14460184D02*
X12467535Y-14441136D01*
X12467535Y-14441136D02*
X12458011Y-14403041D01*
X12458011Y-14403041D02*
X12458011Y-14355422D01*
X12458011Y-14355422D02*
X12467535Y-14317327D01*
X12467535Y-14317327D02*
X12477058Y-14298279D01*
X12477058Y-14298279D02*
X12486582Y-14288755D01*
X12486582Y-14288755D02*
X12505630Y-14279232D01*
X12638963Y-14279232D02*
X12762773Y-14279232D01*
X12762773Y-14279232D02*
X12696106Y-14355422D01*
X12696106Y-14355422D02*
X12724677Y-14355422D01*
X12724677Y-14355422D02*
X12743725Y-14364946D01*
X12743725Y-14364946D02*
X12753249Y-14374470D01*
X12753249Y-14374470D02*
X12762773Y-14393517D01*
X12762773Y-14393517D02*
X12762773Y-14441136D01*
X12762773Y-14441136D02*
X12753249Y-14460184D01*
X12753249Y-14460184D02*
X12743725Y-14469708D01*
X12743725Y-14469708D02*
X12724677Y-14479232D01*
X12724677Y-14479232D02*
X12667535Y-14479232D01*
X12667535Y-14479232D02*
X12648487Y-14469708D01*
X12648487Y-14469708D02*
X12638963Y-14460184D01*
X12858011Y-14479232D02*
X12896106Y-14479232D01*
X12896106Y-14479232D02*
X12915154Y-14469708D01*
X12915154Y-14469708D02*
X12924677Y-14460184D01*
X12924677Y-14460184D02*
X12943725Y-14431613D01*
X12943725Y-14431613D02*
X12953249Y-14393517D01*
X12953249Y-14393517D02*
X12953249Y-14317327D01*
X12953249Y-14317327D02*
X12943725Y-14298279D01*
X12943725Y-14298279D02*
X12934201Y-14288755D01*
X12934201Y-14288755D02*
X12915154Y-14279232D01*
X12915154Y-14279232D02*
X12877058Y-14279232D01*
X12877058Y-14279232D02*
X12858011Y-14288755D01*
X12858011Y-14288755D02*
X12848487Y-14298279D01*
X12848487Y-14298279D02*
X12838963Y-14317327D01*
X12838963Y-14317327D02*
X12838963Y-14364946D01*
X12838963Y-14364946D02*
X12848487Y-14383994D01*
X12848487Y-14383994D02*
X12858011Y-14393517D01*
X12858011Y-14393517D02*
X12877058Y-14403041D01*
X12877058Y-14403041D02*
X12915154Y-14403041D01*
X12915154Y-14403041D02*
X12934201Y-14393517D01*
X12934201Y-14393517D02*
X12943725Y-14383994D01*
X12943725Y-14383994D02*
X12953249Y-14364946D01*
X13124677Y-14345898D02*
X13124677Y-14479232D01*
X13077058Y-14269708D02*
X13029439Y-14412565D01*
X13029439Y-14412565D02*
X13153249Y-14412565D01*
X13219916Y-14279232D02*
X13219916Y-14317327D01*
X13296106Y-14279232D02*
X13296106Y-14317327D01*
X13591344Y-14555422D02*
X13581820Y-14545898D01*
X13581820Y-14545898D02*
X13562773Y-14517327D01*
X13562773Y-14517327D02*
X13553249Y-14498279D01*
X13553249Y-14498279D02*
X13543725Y-14469708D01*
X13543725Y-14469708D02*
X13534201Y-14422089D01*
X13534201Y-14422089D02*
X13534201Y-14383994D01*
X13534201Y-14383994D02*
X13543725Y-14336374D01*
X13543725Y-14336374D02*
X13553249Y-14307803D01*
X13553249Y-14307803D02*
X13562773Y-14288755D01*
X13562773Y-14288755D02*
X13581820Y-14260184D01*
X13581820Y-14260184D02*
X13591344Y-14250660D01*
X13658011Y-14298279D02*
X13667535Y-14288755D01*
X13667535Y-14288755D02*
X13686582Y-14279232D01*
X13686582Y-14279232D02*
X13734201Y-14279232D01*
X13734201Y-14279232D02*
X13753249Y-14288755D01*
X13753249Y-14288755D02*
X13762773Y-14298279D01*
X13762773Y-14298279D02*
X13772297Y-14317327D01*
X13772297Y-14317327D02*
X13772297Y-14336374D01*
X13772297Y-14336374D02*
X13762773Y-14364946D01*
X13762773Y-14364946D02*
X13648487Y-14479232D01*
X13648487Y-14479232D02*
X13772297Y-14479232D01*
X13886582Y-14364946D02*
X13867535Y-14355422D01*
X13867535Y-14355422D02*
X13858011Y-14345898D01*
X13858011Y-14345898D02*
X13848487Y-14326851D01*
X13848487Y-14326851D02*
X13848487Y-14317327D01*
X13848487Y-14317327D02*
X13858011Y-14298279D01*
X13858011Y-14298279D02*
X13867535Y-14288755D01*
X13867535Y-14288755D02*
X13886582Y-14279232D01*
X13886582Y-14279232D02*
X13924678Y-14279232D01*
X13924678Y-14279232D02*
X13943725Y-14288755D01*
X13943725Y-14288755D02*
X13953249Y-14298279D01*
X13953249Y-14298279D02*
X13962773Y-14317327D01*
X13962773Y-14317327D02*
X13962773Y-14326851D01*
X13962773Y-14326851D02*
X13953249Y-14345898D01*
X13953249Y-14345898D02*
X13943725Y-14355422D01*
X13943725Y-14355422D02*
X13924678Y-14364946D01*
X13924678Y-14364946D02*
X13886582Y-14364946D01*
X13886582Y-14364946D02*
X13867535Y-14374470D01*
X13867535Y-14374470D02*
X13858011Y-14383994D01*
X13858011Y-14383994D02*
X13848487Y-14403041D01*
X13848487Y-14403041D02*
X13848487Y-14441136D01*
X13848487Y-14441136D02*
X13858011Y-14460184D01*
X13858011Y-14460184D02*
X13867535Y-14469708D01*
X13867535Y-14469708D02*
X13886582Y-14479232D01*
X13886582Y-14479232D02*
X13924678Y-14479232D01*
X13924678Y-14479232D02*
X13943725Y-14469708D01*
X13943725Y-14469708D02*
X13953249Y-14460184D01*
X13953249Y-14460184D02*
X13962773Y-14441136D01*
X13962773Y-14441136D02*
X13962773Y-14403041D01*
X13962773Y-14403041D02*
X13953249Y-14383994D01*
X13953249Y-14383994D02*
X13943725Y-14374470D01*
X13943725Y-14374470D02*
X13924678Y-14364946D01*
X14200868Y-14479232D02*
X14200868Y-14279232D01*
X14286582Y-14479232D02*
X14286582Y-14374470D01*
X14286582Y-14374470D02*
X14277059Y-14355422D01*
X14277059Y-14355422D02*
X14258011Y-14345898D01*
X14258011Y-14345898D02*
X14229439Y-14345898D01*
X14229439Y-14345898D02*
X14210392Y-14355422D01*
X14210392Y-14355422D02*
X14200868Y-14364946D01*
X14410392Y-14479232D02*
X14391344Y-14469708D01*
X14391344Y-14469708D02*
X14381820Y-14460184D01*
X14381820Y-14460184D02*
X14372297Y-14441136D01*
X14372297Y-14441136D02*
X14372297Y-14383994D01*
X14372297Y-14383994D02*
X14381820Y-14364946D01*
X14381820Y-14364946D02*
X14391344Y-14355422D01*
X14391344Y-14355422D02*
X14410392Y-14345898D01*
X14410392Y-14345898D02*
X14438963Y-14345898D01*
X14438963Y-14345898D02*
X14458011Y-14355422D01*
X14458011Y-14355422D02*
X14467535Y-14364946D01*
X14467535Y-14364946D02*
X14477059Y-14383994D01*
X14477059Y-14383994D02*
X14477059Y-14441136D01*
X14477059Y-14441136D02*
X14467535Y-14460184D01*
X14467535Y-14460184D02*
X14458011Y-14469708D01*
X14458011Y-14469708D02*
X14438963Y-14479232D01*
X14438963Y-14479232D02*
X14410392Y-14479232D01*
X14591344Y-14479232D02*
X14572297Y-14469708D01*
X14572297Y-14469708D02*
X14562773Y-14450660D01*
X14562773Y-14450660D02*
X14562773Y-14279232D01*
X14743725Y-14469708D02*
X14724678Y-14479232D01*
X14724678Y-14479232D02*
X14686582Y-14479232D01*
X14686582Y-14479232D02*
X14667535Y-14469708D01*
X14667535Y-14469708D02*
X14658011Y-14450660D01*
X14658011Y-14450660D02*
X14658011Y-14374470D01*
X14658011Y-14374470D02*
X14667535Y-14355422D01*
X14667535Y-14355422D02*
X14686582Y-14345898D01*
X14686582Y-14345898D02*
X14724678Y-14345898D01*
X14724678Y-14345898D02*
X14743725Y-14355422D01*
X14743725Y-14355422D02*
X14753249Y-14374470D01*
X14753249Y-14374470D02*
X14753249Y-14393517D01*
X14753249Y-14393517D02*
X14658011Y-14412565D01*
X14829440Y-14469708D02*
X14848487Y-14479232D01*
X14848487Y-14479232D02*
X14886582Y-14479232D01*
X14886582Y-14479232D02*
X14905630Y-14469708D01*
X14905630Y-14469708D02*
X14915154Y-14450660D01*
X14915154Y-14450660D02*
X14915154Y-14441136D01*
X14915154Y-14441136D02*
X14905630Y-14422089D01*
X14905630Y-14422089D02*
X14886582Y-14412565D01*
X14886582Y-14412565D02*
X14858011Y-14412565D01*
X14858011Y-14412565D02*
X14838963Y-14403041D01*
X14838963Y-14403041D02*
X14829440Y-14383994D01*
X14829440Y-14383994D02*
X14829440Y-14374470D01*
X14829440Y-14374470D02*
X14838963Y-14355422D01*
X14838963Y-14355422D02*
X14858011Y-14345898D01*
X14858011Y-14345898D02*
X14886582Y-14345898D01*
X14886582Y-14345898D02*
X14905630Y-14355422D01*
X14981821Y-14555422D02*
X14991344Y-14545898D01*
X14991344Y-14545898D02*
X15010392Y-14517327D01*
X15010392Y-14517327D02*
X15019916Y-14498279D01*
X15019916Y-14498279D02*
X15029440Y-14469708D01*
X15029440Y-14469708D02*
X15038963Y-14422089D01*
X15038963Y-14422089D02*
X15038963Y-14383994D01*
X15038963Y-14383994D02*
X15029440Y-14336374D01*
X15029440Y-14336374D02*
X15019916Y-14307803D01*
X15019916Y-14307803D02*
X15010392Y-14288755D01*
X15010392Y-14288755D02*
X14991344Y-14260184D01*
X14991344Y-14260184D02*
X14981821Y-14250660D01*
M02*
